<?xml version="1.0" standalone="no"?>
<!DOCTYPE svg PUBLIC "-//W3C//DTD SVG 20010904//EN"
 "http://www.w3.org/TR/2001/REC-SVG-20010904/DTD/svg10.dtd">
<svg version="1.0" xmlns="http://www.w3.org/2000/svg"
 width="260.000000pt" height="260.000000pt" viewBox="0 0 260.000000 260.000000"
 preserveAspectRatio="xMidYMid meet">
<metadata>
Created by potrace 1.14, written by Peter Selinger 2001-2017
</metadata>
<g transform="translate(0.000000,260.000000) scale(0.100000,-0.100000)"
fill="#000000" stroke="none">
<path d="M805 2572 c-33 -16 -87 -51 -120 -79 -33 -27 -67 -54 -76 -59 -35
-21 -190 -210 -195 -239 -1 -5 -11 -32 -23 -58 l-21 -48 -52 6 c-29 3 -65 7
-80 8 -16 1 -28 4 -28 8 0 3 -11 4 -25 1 -14 -2 -25 0 -25 4 0 5 -18 9 -40 8
-22 0 -40 3 -40 6 0 4 -18 7 -40 7 l-40 0 0 -478 0 -479 63 0 c86 0 217 -12
217 -19 0 -3 -20 -5 -45 -3 -56 5 -87 -14 -59 -35 21 -15 78 -17 104 -3 14 7
19 5 23 -10 5 -19 0 -20 -149 -20 l-154 0 0 -545 0 -545 650 0 c574 1 650 3
650 16 0 8 -4 13 -9 9 -17 -10 -34 35 -23 59 6 11 13 28 15 36 4 11 6 11 6 -3
1 -24 21 -12 21 13 0 11 11 22 28 28 16 5 45 24 64 41 20 17 42 31 51 31 19 0
28 22 13 35 -12 10 -25 14 -66 21 -54 8 -62 11 -82 28 -16 14 -18 20 -8 26 11
6 10 12 -4 26 -14 13 -15 19 -4 25 10 7 10 9 -1 9 -8 0 -11 3 -7 7 4 4 40 8
80 9 43 1 86 9 103 18 17 8 33 12 37 9 3 -4 6 -1 6 5 0 7 10 12 21 12 33 0 83
35 133 93 24 28 48 48 52 44 4 -4 8 -35 8 -69 1 -34 6 -63 11 -65 13 -4 38 78
40 133 3 65 -45 107 -56 49 -3 -13 -16 -22 -44 -27 -62 -13 -95 -29 -95 -47
-1 -23 -45 -96 -58 -96 -5 0 -14 -3 -18 -7 -4 -5 -17 -8 -29 -8 -11 0 -25 -4
-30 -9 -9 -8 -101 -16 -152 -13 -25 2 -46 33 -37 56 3 8 22 22 41 31 29 14 37
15 44 4 6 -10 9 -10 9 -2 0 7 11 15 25 19 43 11 25 31 -22 25 -7 -1 -25 5 -40
13 -24 12 -26 15 -10 21 9 4 17 13 17 20 0 19 21 30 29 16 5 -7 20 -9 39 -5
36 7 41 20 12 29 -16 5 -18 10 -10 25 10 18 4 50 -9 50 -4 0 -12 -5 -17 -10
-13 -13 -61 72 -65 115 -3 37 9 102 23 132 8 16 8 41 0 85 -5 35 -6 67 -2 72
5 4 1 27 -7 50 -9 24 -17 89 -19 156 -4 95 -9 124 -29 166 -26 55 -39 63 -169
105 -77 24 -110 50 -101 79 3 10 1 21 -5 25 -5 3 -10 39 -10 80 0 43 -5 77
-11 81 -8 4 -7 9 2 15 12 7 12 9 0 9 -11 0 -11 3 -1 15 7 8 8 15 3 15 -5 0 -9
9 -9 20 0 11 4 20 8 20 4 0 11 15 16 33 7 24 5 36 -6 49 -8 10 -12 24 -9 32 4
9 2 18 -4 21 -5 4 -6 11 -3 17 4 6 -1 17 -10 24 -11 7 -13 14 -7 19 7 4 5 14
-5 31 -9 13 -14 24 -11 24 3 0 1 15 -3 34 -6 28 -3 38 17 60 23 25 34 30 61
27 6 -1 12 3 12 8 0 6 7 8 15 5 8 -4 22 -1 30 6 10 8 15 9 15 1 0 -8 7 -7 25
1 17 8 32 8 52 0 15 -6 37 -12 48 -13 27 -3 75 21 75 38 0 7 7 13 15 13 8 0
15 5 15 11 0 7 29 8 88 3 48 -3 106 -7 129 -8 24 0 43 -4 43 -8 0 -3 18 -4 40
-1 29 4 47 0 67 -13 16 -10 42 -20 58 -21 58 -6 76 -14 115 -49 41 -37 110
-140 110 -165 1 -8 14 -32 30 -54 49 -66 73 -124 75 -179 3 -69 5 -74 15 -51
7 16 9 12 9 -18 1 -21 -3 -36 -8 -33 -5 4 -7 -12 -4 -36 3 -32 2 -39 -6 -28
-9 12 -11 10 -11 -11 0 -14 -3 -47 -6 -73 -6 -38 -4 -45 8 -41 8 3 21 -1 28
-10 11 -13 10 -18 -4 -33 -18 -20 -22 -37 -6 -27 6 3 10 -1 10 -9 0 -9 6 -16
13 -16 20 0 32 61 26 130 -4 36 -6 66 -4 68 1 2 32 0 69 -4 l66 -7 0 -84 0
-85 -35 5 c-31 4 -35 2 -35 -17 0 -11 -3 -31 -6 -42 -5 -20 -1 -22 43 -28 26
-3 119 -8 206 -12 l157 -6 0 165 0 165 -37 6 c-21 3 -121 13 -223 21 -102 9
-194 18 -206 21 -19 3 -20 10 -20 111 l1 108 -53 100 c-29 55 -69 126 -88 157
-50 80 -186 207 -275 257 l-74 41 -380 0 -380 0 -60 -28z m126 -229 c13 -16
12 -17 -3 -4 -17 13 -22 21 -14 21 2 0 10 -8 17 -17z m1590 -655 c4 -5 6 -40
5 -76 l-1 -67 -86 1 c-122 1 -119 -1 -119 90 l0 76 98 -7 c53 -4 100 -12 103
-17z m-1499 -186 c13 -13 -95 -36 -128 -28 -21 6 -23 9 -14 26 10 18 19 20 72
16 33 -3 65 -9 70 -14z m-23 -65 c8 -11 5 -13 -19 -9 -16 2 -27 8 -24 13 8 13
30 11 43 -4z m53 -105 c-5 -14 -61 -46 -68 -39 -3 2 2 10 11 17 8 7 15 28 15
49 l0 36 24 -25 c13 -14 21 -31 18 -38z m38 8 c0 -5 -5 -10 -11 -10 -5 0 -7 5
-4 10 3 6 8 10 11 10 2 0 4 -4 4 -10z m-860 -204 c0 -3 -4 -8 -10 -11 -5 -3
-10 -1 -10 4 0 6 5 11 10 11 6 0 10 -2 10 -4z m737 -343 c5 -13 -60 -83 -75
-83 -12 0 -10 41 3 72 10 25 65 33 72 11z m-90 -195 c-3 -8 -6 -5 -6 6 -1 11
2 17 5 13 3 -3 4 -12 1 -19z m33 -70 c0 -5 -8 0 -18 10 -10 9 -16 23 -14 31 4
9 9 6 18 -10 7 -13 13 -27 14 -31z"/>
<path d="M1640 1607 c-41 -4 -91 -16 -110 -25 -19 -9 -42 -17 -50 -17 -8 0
-15 -7 -15 -15 0 -12 20 -16 105 -18 58 -2 111 -8 118 -14 8 -7 12 -7 12 0 0
6 13 7 33 3 49 -9 196 2 177 14 -8 5 -19 10 -25 10 -28 3 -64 18 -59 26 5 9
-9 17 -38 23 -7 2 -21 6 -30 9 -33 13 -43 13 -118 4z"/>
<path d="M1583 1464 c-77 -40 -69 -33 -77 -60 -5 -17 -2 -23 19 -28 30 -8 34
-26 5 -26 -26 0 -26 -17 -1 -25 11 -3 18 -12 15 -19 -3 -8 6 -22 20 -33 28
-22 93 -24 106 -3 4 7 12 10 18 6 6 -3 13 -2 17 4 3 5 0 10 -7 10 -7 1 3 8 22
16 50 21 68 54 30 54 -11 0 -20 5 -20 10 0 6 7 10 16 10 9 0 22 7 29 16 11 15
15 15 50 -9 22 -15 41 -24 43 -22 10 10 -23 36 -77 62 -31 15 -60 32 -66 39
-5 6 -25 16 -43 22 -29 10 -40 7 -99 -24z m56 -133 c1 -10 -2 -11 -13 -2 -8 7
-12 21 -8 33 5 21 6 21 13 2 4 -10 8 -25 8 -33z"/>
<path d="M1870 1404 c0 -5 7 -19 15 -30 8 -10 15 -14 15 -8 0 5 -7 19 -15 30
-8 10 -15 14 -15 8z"/>
<path d="M2280 1359 c-41 -5 -81 -10 -89 -11 -15 -3 -25 -154 -25 -415 -1 -77
-5 -139 -9 -136 -4 2 -7 -11 -5 -31 1 -20 5 -36 9 -36 10 0 10 -357 -1 -385
-7 -18 -6 -25 3 -25 8 0 7 -4 -3 -10 -8 -5 -11 -12 -7 -16 7 -7 11 -7 145 2
66 4 82 3 82 -8 0 -10 -15 -15 -47 -17 -79 -4 -99 -55 -33 -84 42 -18 54 -47
20 -47 -22 0 -27 -15 -7 -23 6 -3 -5 -6 -27 -6 -33 -1 -37 -3 -26 -16 7 -8 17
-15 23 -15 5 0 45 -18 88 -40 90 -46 99 -48 99 -20 0 26 26 26 65 0 50 -33 65
-27 65 25 0 43 -1 44 -40 55 -22 6 -52 9 -67 8 l-27 -3 -3 90 c-8 332 -23
1052 -23 1108 l0 67 -42 -1 c-24 -1 -77 -5 -118 -10z m-26 -164 c6 -17 -2
-203 -11 -255 l-7 -35 -7 50 c-9 64 -11 240 -2 248 10 11 20 8 27 -8z m63
-147 c1 -12 -2 -29 -8 -39 -6 -12 -5 -20 3 -26 7 -4 14 -30 16 -58 13 -248 13
-277 3 -270 -6 3 -11 -1 -11 -10 0 -9 -5 -15 -11 -13 -13 4 -17 35 -24 203 -2
66 -5 121 -6 123 -4 11 -1 84 4 88 3 3 3 12 1 19 -4 9 0 12 13 9 10 -3 20 -15
20 -26z m3 -459 c0 -5 5 -7 10 -4 13 8 13 -1 -2 -24 -9 -15 -8 -22 5 -36 13
-13 17 -35 17 -101 0 -83 0 -84 -25 -84 -21 0 -25 5 -26 33 -1 17 -3 42 -4 55
-1 12 2 22 6 22 13 0 11 38 -2 45 -6 4 -8 23 -5 44 3 20 5 42 6 49 0 15 20 16
20 1z m118 -386 c-3 -35 -6 -38 -36 -39 -26 -1 -33 3 -38 22 -10 39 2 54 41
54 36 0 36 -1 33 -37z m36 -129 c4 -10 1 -14 -6 -12 -15 5 -23 28 -10 28 5 0
13 -7 16 -16z"/>
<path d="M2323 745 c0 -22 2 -30 4 -17 2 12 2 30 0 40 -3 9 -5 -1 -4 -23z"/>
<path d="M30 1140 c0 -5 5 -10 10 -10 6 0 10 5 10 10 0 6 -4 10 -10 10 -5 0
-10 -4 -10 -10z"/>
<path d="M1600 975 c0 -16 76 -147 105 -180 23 -25 33 -46 29 -57 -3 -10 -1
-18 5 -18 6 0 11 5 11 11 0 17 29 -10 46 -42 8 -16 14 -42 14 -59 0 -18 4 -29
10 -25 15 9 12 71 -5 108 -18 40 -34 64 -62 93 -13 13 -23 29 -23 37 0 8 -26
42 -59 75 -53 56 -71 71 -71 57z"/>
<path d="M2075 750 c-3 -5 -3 -99 0 -210 l6 -200 -29 6 c-18 4 -32 1 -37 -6
-10 -17 -1 -22 51 -28 54 -6 66 6 53 52 -5 17 -9 106 -9 198 0 91 -3 173 -6
182 -7 18 -20 21 -29 6z"/>
<path d="M2037 494 c-10 -11 -9 -54 2 -54 15 0 18 13 12 38 -3 13 -9 20 -14
16z"/>
<path d="M2020 415 c0 -8 9 -15 20 -15 24 0 27 15 4 24 -22 9 -24 8 -24 -9z"/>
<path d="M1905 405 c-28 -70 -45 -117 -45 -124 0 -8 44 -31 60 -31 12 0 12
113 0 150 -7 24 -8 24 -15 5z"/>
<path d="M2126 287 c3 -10 9 -15 12 -12 3 3 0 11 -7 18 -10 9 -11 8 -5 -6z"/>
<path d="M1505 271 c-3 -5 -1 -12 5 -16 5 -3 10 1 10 9 0 18 -6 21 -15 7z"/>
<path d="M1748 147 c-3 -15 -2 -27 3 -27 13 0 17 14 9 35 -6 17 -7 16 -12 -8z"/>
<path d="M1851 140 c0 -8 6 -40 14 -70 9 -39 13 -46 13 -25 0 31 -25 122 -27
95z"/>
<path d="M1692 75 c-15 -33 -15 -55 -1 -55 6 0 9 7 5 15 -3 9 4 21 19 31 14 9
22 20 19 25 -10 17 -31 9 -42 -16z"/>
<path d="M1647 15 c-5 -10 0 -15 14 -15 12 0 19 5 17 12 -6 18 -25 20 -31 3z"/>
</g>
</svg>
