<?xml version="1.0" standalone="no"?>
<!DOCTYPE svg PUBLIC "-//W3C//DTD SVG 20010904//EN"
 "http://www.w3.org/TR/2001/REC-SVG-20010904/DTD/svg10.dtd">
<svg version="1.0" xmlns="http://www.w3.org/2000/svg"
 width="1024.000000pt" height="1024.000000pt" viewBox="0 0 1024.000000 1024.000000"
 preserveAspectRatio="xMidYMid meet">
<metadata>
Created by potrace 1.14, written by Peter Selinger 2001-2017
</metadata>
<g transform="translate(0.000000,1024.000000) scale(0.100000,-0.100000)"
fill="#000000" stroke="none">
<path d="M6100 10221 c0 -6 4 -13 10 -16 6 -3 7 1 4 9 -7 18 -14 21 -14 7z"/>
<path d="M6605 10050 c3 -5 8 -10 11 -10 2 0 4 5 4 10 0 6 -5 10 -11 10 -5 0
-7 -4 -4 -10z"/>
<path d="M6785 10040 c-3 -5 -1 -10 4 -10 6 0 11 5 11 10 0 6 -2 10 -4 10 -3
0 -8 -4 -11 -10z"/>
<path d="M6372 9976 c2 -19 9 -30 21 -32 23 -3 22 8 -4 37 l-21 24 4 -29z"/>
<path d="M6225 9970 c-3 -5 -1 -10 5 -10 6 0 8 -5 4 -12 -4 -7 -3 -8 4 -4 6 4
9 13 5 21 -6 18 -10 19 -18 5z"/>
<path d="M6431 9954 c0 -11 3 -14 6 -6 3 7 2 16 -1 19 -3 4 -6 -2 -5 -13z"/>
<path d="M4825 9950 c3 -5 8 -10 11 -10 2 0 4 5 4 10 0 6 -5 10 -11 10 -5 0
-7 -4 -4 -10z"/>
<path d="M6275 9929 c-11 -17 1 -21 15 -4 8 9 8 15 2 15 -6 0 -14 -5 -17 -11z"/>
<path d="M6860 9930 c0 -5 7 -7 15 -4 8 4 15 8 15 10 0 2 -7 4 -15 4 -8 0 -15
-4 -15 -10z"/>
<path d="M6200 9924 c0 -10 28 -34 41 -34 7 0 2 9 -11 20 -24 21 -30 24 -30
14z"/>
<path d="M6370 9920 c-12 -8 -9 -10 13 -10 15 0 27 5 27 10 0 13 -20 13 -40 0z"/>
<path d="M6453 9886 c0 -13 6 -23 13 -23 8 0 14 8 14 18 0 9 -6 19 -14 22 -9
4 -13 -2 -13 -17z"/>
<path d="M6215 9860 c-19 -8 -19 -9 3 -9 12 -1 22 4 22 9 0 6 -1 10 -2 9 -2 0
-12 -4 -23 -9z"/>
<path d="M6456 9795 c4 -8 8 -15 10 -15 2 0 4 7 4 15 0 8 -4 15 -10 15 -5 0
-7 -7 -4 -15z"/>
<path d="M5230 9791 c0 -5 5 -13 10 -16 6 -3 10 -2 10 4 0 5 -4 13 -10 16 -5
3 -10 2 -10 -4z"/>
<path d="M5360 9790 c0 -5 5 -10 11 -10 5 0 7 5 4 10 -3 6 -8 10 -11 10 -2 0
-4 -4 -4 -10z"/>
<path d="M6430 9790 c0 -6 -8 -10 -17 -8 -10 1 -18 -2 -18 -7 0 -6 5 -10 12
-10 6 0 15 -4 19 -8 4 -4 3 -7 -3 -7 -6 0 -13 -11 -15 -25 -5 -25 5 -34 17
-15 10 15 25 2 26 -23 1 -18 2 -19 6 -4 6 22 29 16 25 -7 -2 -9 1 -16 6 -16 6
0 12 13 14 29 2 17 1 28 -3 25 -5 -2 -20 -2 -34 2 -26 7 -35 38 -12 47 9 4 9
6 -1 6 -7 1 -11 5 -7 10 3 5 1 12 -5 16 -5 3 -10 1 -10 -5z"/>
<path d="M5165 9740 c-3 -5 -1 -10 4 -10 6 0 11 5 11 10 0 6 -2 10 -4 10 -3 0
-8 -4 -11 -10z"/>
<path d="M6385 9740 c-3 -5 -1 -10 4 -10 6 0 11 5 11 10 0 6 -2 10 -4 10 -3 0
-8 -4 -11 -10z"/>
<path d="M5860 9630 c0 -5 5 -10 11 -10 5 0 7 5 4 10 -3 6 -8 10 -11 10 -2 0
-4 -4 -4 -10z"/>
<path d="M6112 9591 c-10 -6 -7 -10 12 -13 15 -3 27 0 30 8 6 16 -21 19 -42 5z"/>
<path d="M935 9570 c-17 -3 -31 -12 -33 -23 -4 -18 1 -20 63 -17 22 0 74 1
115 2 41 1 66 3 55 5 -51 12 -26 18 63 16 53 -1 99 -2 102 -3 3 0 -2 -5 -10
-10 -17 -11 -1 -13 25 -4 13 5 14 8 3 15 -8 6 5 9 35 9 26 0 47 -3 47 -7 0 -5
186 -7 412 -6 227 0 431 -3 453 -7 22 -5 56 -5 75 -1 20 4 44 5 55 1 11 -4 23
-3 27 3 4 7 11 7 21 -2 8 -6 32 -11 54 -11 21 1 115 1 208 1 94 0 213 2 265 5
110 8 213 10 544 12 132 1 237 4 235 6 -2 2 -164 7 -359 10 -195 3 -420 8
-500 10 -80 3 -135 2 -122 0 36 -8 15 -24 -31 -23 -35 0 -38 2 -19 9 33 14 28
16 -30 13 -29 -1 -60 -2 -68 -1 -84 4 -1663 2 -1685 -2z m1978 -17 c-7 -2 -19
-2 -25 0 -7 3 -2 5 12 5 14 0 19 -2 13 -5z"/>
<path d="M4627 9566 c-4 -10 -1 -13 8 -9 8 3 12 9 9 14 -7 12 -11 11 -17 -5z"/>
<path d="M4733 9572 c-9 -6 -7 -11 7 -20 12 -7 20 -8 20 -2 0 5 12 10 26 10
14 0 23 4 19 10 -7 12 -55 13 -72 2z"/>
<path d="M4985 9569 c-10 -15 0 -22 39 -24 18 -1 40 -6 47 -10 8 -5 5 1 -5 14
-11 12 -26 19 -33 17 -7 -3 -13 -1 -13 4 0 13 -27 13 -35 -1z"/>
<path d="M5478 9573 c7 -3 16 -2 19 1 4 3 -2 6 -13 5 -11 0 -14 -3 -6 -6z"/>
<path d="M5502 9559 c-13 -20 -19 -20 -108 -14 -92 7 -95 7 -101 -14 -3 -11
-10 -22 -17 -22 -56 -7 -67 -4 -63 13 3 11 0 18 -9 18 -8 0 -23 6 -34 12 -15
9 -22 10 -31 1 -13 -13 -3 -36 12 -28 5 4 9 -1 9 -9 0 -21 -10 -20 -26 2 -12
15 -13 15 -14 1 0 -20 -27 -33 -36 -17 -5 7 -8 7 -13 -1 -8 -13 -36 -14 -291
-12 -113 1 -236 -1 -275 -4 -124 -11 -290 -12 -296 -2 -4 5 -24 10 -45 12 -22
1 -59 6 -83 10 -31 6 -42 5 -37 -3 3 -6 2 -13 -3 -16 -5 -4 -12 -2 -16 4 -4 6
-11 8 -16 4 -5 -3 -7 -10 -4 -15 4 -5 1 -9 -5 -9 -12 0 -40 -24 -40 -34 0 -3
9 -6 21 -6 11 0 17 4 14 10 -4 7 2 9 17 5 42 -10 199 -12 204 -3 10 17 35 -15
32 -41 -1 -14 1 -32 5 -39 6 -8 2 -12 -12 -12 -12 0 -21 -4 -21 -8 0 -8 3 -9
88 -12 87 -4 69 -20 -25 -22 -48 -1 -107 0 -130 1 -48 2 -50 0 -27 -24 9 -9
13 -19 10 -23 -4 -3 -11 0 -15 7 -11 17 -42 21 -166 21 -61 0 -101 -4 -103
-10 -3 -7 -9 -7 -18 1 -9 8 -32 10 -65 6 -53 -6 -103 8 -80 22 9 6 7 12 -5 22
-10 8 -15 9 -12 4 21 -35 -50 -44 -347 -44 -1030 2 -1333 -1 -1480 -15 -88 -8
-161 -13 -163 -11 -10 10 14 25 66 41 57 17 232 26 232 12 0 -5 15 -8 33 -7
30 1 30 2 7 8 -16 5 -24 13 -22 24 2 10 -4 17 -13 17 -8 0 -15 -4 -15 -9 0
-10 -38 -9 -55 0 -6 3 -39 7 -75 8 -36 1 -67 6 -68 12 -3 6 -9 6 -18 -2 -11
-9 -18 -9 -29 1 -12 10 -15 10 -15 -4 0 -9 -5 -16 -12 -16 -7 0 -23 -12 -35
-27 l-23 -28 2 38 c1 20 7 37 13 37 6 0 20 7 31 16 18 14 18 15 -6 8 -24 -6
-24 -6 -5 9 11 8 23 13 27 11 5 -3 8 0 8 6 0 8 -9 10 -25 6 -16 -4 -25 -2 -25
5 0 7 -14 -7 -30 -30 -29 -40 -50 -46 -50 -15 0 21 -18 17 -25 -6 -8 -24 -21
-26 -29 -5 -3 8 -11 15 -17 15 -8 0 -6 -7 4 -18 21 -23 21 -32 2 -32 -8 0 -15
4 -15 8 0 4 -9 8 -20 8 -10 0 -17 -2 -15 -5 10 -9 -19 -31 -42 -31 -13 0 -26
-7 -29 -15 -3 -8 -21 -19 -40 -25 -32 -11 -37 -10 -57 12 -27 29 -58 43 -54
25 1 -8 -9 -11 -33 -9 -42 5 -39 2 -43 33 -3 17 -10 23 -23 21 -22 -4 -35 -22
-27 -35 3 -5 -12 -26 -32 -47 -35 -36 -37 -40 -26 -71 15 -43 15 -44 -13 -73
-26 -29 -38 -33 -30 -11 4 8 1 15 -5 15 -8 0 -9 6 -2 19 10 18 -5 71 -21 71
-5 0 -18 -65 -23 -123 -1 -11 -8 -23 -16 -27 -11 -7 -11 -17 -3 -49 6 -23 7
-41 3 -41 -10 0 -6 -50 5 -68 4 -7 1 -12 -8 -12 -9 0 -16 9 -16 20 0 12 -5 17
-13 14 -16 -6 -15 -20 -17 200 -1 99 -6 174 -10 170 -5 -5 -10 -116 -12 -246
-3 -223 -2 -237 15 -232 12 4 17 0 17 -15 0 -12 5 -21 10 -21 6 0 10 -6 10
-14 0 -18 20 -32 29 -20 9 13 41 17 41 4 0 -5 6 -10 14 -10 8 0 17 -8 19 -17
4 -14 5 -13 6 4 0 12 5 25 11 28 5 3 10 14 10 24 0 25 39 41 67 28 13 -6 23
-14 23 -19 0 -4 10 -7 23 -7 16 1 18 2 4 6 -9 2 -17 11 -17 19 0 8 -4 13 -9
10 -5 -3 -14 1 -20 8 -22 26 21 24 66 -3 55 -33 73 -82 47 -132 -10 -19 -18
-52 -19 -74 -1 -44 -22 -105 -37 -105 -5 0 -4 9 2 21 11 19 10 20 -9 9 -17 -9
-22 -8 -27 5 -10 24 -26 18 -18 -7 6 -21 6 -21 -10 -5 -22 21 -16 30 40 63 24
14 44 31 44 37 0 8 -3 8 -9 -1 -6 -10 -10 -10 -21 3 -7 8 -21 15 -31 15 -11 0
-19 5 -19 10 0 6 7 10 15 10 8 0 15 4 15 10 0 13 -34 8 -53 -8 -8 -7 -22 -10
-31 -6 -22 9 -20 -9 3 -23 13 -8 18 -19 14 -33 -5 -20 11 -28 22 -10 3 6 14
10 23 10 14 -1 12 -5 -7 -21 -16 -13 -36 -19 -54 -17 -18 2 -32 -2 -34 -10 -3
-8 1 -10 14 -5 16 6 17 5 3 -12 -14 -17 -14 -18 7 -6 19 10 22 9 17 -4 -4 -8
-2 -15 4 -15 5 0 13 -7 16 -16 5 -14 4 -15 -8 -5 -8 7 -20 10 -26 6 -15 -9 19
-47 37 -41 19 8 26 -11 8 -21 -19 -11 -14 -55 6 -61 8 -3 11 -1 7 3 -8 9 20
40 28 32 11 -11 -35 -50 -50 -44 -9 3 -18 2 -21 -3 -4 -6 -13 -7 -23 -1 -9 4
-33 11 -54 15 l-36 7 11 -43 c9 -39 38 -78 58 -78 13 0 24 24 20 48 -1 15 3
22 13 22 9 0 16 -3 17 -7 0 -5 3 -24 5 -43 3 -19 6 -70 6 -112 1 -43 4 -78 7
-78 4 0 7 -9 8 -20 1 -11 -3 -20 -9 -20 -6 0 -6 -6 2 -15 10 -12 10 -18 0 -30
-6 -8 -9 -19 -5 -25 3 -5 2 -10 -4 -10 -5 0 -12 39 -16 88 -3 48 -9 94 -12
102 -4 8 -5 18 -5 23 1 4 -9 7 -23 7 -14 0 -25 -4 -25 -10 0 -5 -7 -10 -16
-10 -17 0 -11 -35 11 -58 8 -9 10 -25 5 -48 -6 -27 -5 -34 7 -34 8 0 11 -5 8
-10 -3 -6 -17 -7 -29 -4 -18 4 -25 1 -29 -15 -3 -12 -1 -21 5 -21 5 0 6 -5 2
-12 -4 -6 -10 -28 -14 -49 -5 -28 -4 -36 6 -32 9 3 11 -2 7 -16 -4 -15 -1 -21
12 -21 12 0 15 -4 8 -12 -20 -26 -35 -105 -25 -125 7 -12 7 -25 1 -36 -6 -9
-8 -21 -4 -26 3 -5 -1 -12 -7 -14 -7 -3 -3 -6 8 -6 16 -1 23 -9 26 -31 3 -16
1 -30 -4 -30 -5 0 -6 -4 -3 -10 3 -5 3 -10 -2 -10 -4 0 -13 -12 -20 -27 -14
-34 -23 -84 -14 -78 4 2 7 -12 7 -31 0 -20 6 -39 15 -44 11 -8 12 -13 1 -30
-11 -18 -10 -20 10 -20 21 0 21 0 3 -14 -11 -8 -24 -12 -29 -9 -5 3 -7 0 -4
-8 2 -8 16 -20 31 -27 33 -16 26 -46 -8 -38 -22 6 -23 3 -21 -36 1 -23 8 -44
15 -46 9 -3 9 -7 0 -19 -10 -11 -10 -16 0 -22 10 -6 9 -12 -4 -24 -13 -13 -15
-32 -11 -107 3 -49 2 -90 -3 -90 -5 0 -8 -18 -7 -39 0 -24 5 -37 11 -33 5 3 4
-1 -2 -10 -7 -8 -10 -17 -7 -21 8 -7 12 -127 4 -122 -3 2 -6 -17 -7 -42 -2
-41 -1 -44 14 -32 15 13 15 12 2 -8 -8 -13 -17 -23 -21 -23 -3 0 -9 -17 -12
-37 -18 -107 -27 -265 -15 -257 17 10 19 -18 3 -31 -18 -13 -18 -14 2 -9 15 4
23 16 26 35 3 16 0 29 -4 29 -5 0 -3 7 6 15 21 22 25 19 23 -20 -1 -19 -5 -35
-10 -35 -4 0 -5 -19 -2 -42 3 -24 0 -50 -5 -58 -7 -12 -10 -8 -10 14 0 32 -13
28 -15 -4 -1 -11 6 -22 15 -25 13 -4 16 -18 16 -65 -1 -33 3 -60 8 -60 4 0 4
-6 -1 -12 -5 -7 -10 -29 -10 -50 -1 -20 -6 -44 -12 -55 -10 -16 -11 -15 -8 7
1 14 5 30 8 35 10 18 3 109 -8 112 -16 6 -35 -34 -28 -57 4 -14 2 -20 -9 -20
-19 0 -21 -23 -3 -42 12 -13 18 -118 6 -118 -10 0 -4 -95 6 -102 6 -5 5 -11
-3 -17 -11 -6 -12 -27 -7 -90 6 -58 4 -81 -4 -81 -6 0 -11 -7 -11 -15 0 -8 6
-15 13 -15 8 0 8 -3 1 -8 -19 -13 -25 -42 -9 -42 10 0 15 -10 15 -30 0 -16 5
-30 11 -30 7 0 9 10 5 25 -5 20 -3 25 14 25 14 0 20 -7 20 -24 0 -13 -5 -26
-11 -28 -9 -3 -9 -10 1 -27 8 -15 9 -39 5 -70 -7 -41 -8 -44 -18 -23 -5 12
-19 22 -30 22 -18 0 -19 -4 -13 -57 4 -32 8 -63 8 -70 2 -20 27 -23 37 -5 10
16 12 -51 12 -368 0 -148 0 -150 -16 -150 -7 0 -18 7 -23 16 -5 9 -18 14 -28
12 -16 -3 -19 -14 -22 -76 -1 -43 2 -72 8 -72 5 0 9 -4 8 -9 -2 -5 2 -9 7 -10
9 -1 12 16 15 82 1 9 8 17 15 17 9 0 12 -6 9 -15 -4 -8 -1 -15 6 -15 8 0 10
-9 6 -25 -4 -15 -2 -25 5 -25 8 0 9 -60 6 -207 -3 -115 -6 -210 -7 -213 -1 -3
-3 -23 -5 -45 -1 -22 -6 -59 -10 -82 -5 -30 -4 -47 5 -58 8 -9 8 -15 2 -15 -6
0 -14 -9 -17 -20 -4 -13 -15 -20 -31 -20 -26 0 -31 -9 -12 -28 12 -12 -3 -17
-45 -13 -9 1 -17 -2 -17 -7 0 -17 27 -33 44 -26 22 8 21 -12 -1 -25 -11 -6
-13 -11 -5 -11 8 0 10 -8 6 -24 -4 -18 -1 -27 14 -35 16 -8 21 -6 30 14 7 15
8 26 2 30 -6 4 -10 11 -10 16 0 6 4 8 9 5 5 -4 11 0 14 6 2 7 4 -3 5 -22 0
-19 -5 -38 -11 -43 -9 -7 -9 -10 1 -14 6 -2 12 -18 12 -34 0 -37 -27 -50 -47
-23 -12 16 -15 17 -23 4 -16 -25 -11 -47 10 -53 24 -6 26 -20 5 -41 -19 -18
-19 -22 1 -30 8 -3 12 -2 9 3 -3 5 -1 12 5 16 5 3 10 2 10 -4 0 -6 8 -8 18 -5
14 5 14 3 -2 -10 -17 -14 -18 -16 -3 -16 21 0 22 -16 2 -24 -19 -7 -19 -35 0
-42 15 -6 19 -71 4 -79 -7 -5 -4 -42 6 -74 4 -12 2 -28 -4 -35 -7 -8 -8 -31
-1 -71 5 -32 6 -63 3 -69 -12 -18 -14 -636 -3 -636 13 0 13 -37 0 -45 -9 -5
-5 -68 5 -85 7 -11 45 0 45 12 0 5 3 7 8 5 13 -9 8 -92 -5 -89 -19 3 -16 -15
5 -30 18 -14 27 -68 11 -68 -6 0 -7 -5 -4 -10 4 -6 10 -8 15 -5 4 3 6 -4 3
-14 -3 -13 -11 -18 -21 -14 -13 3 -14 2 -4 -4 7 -6 10 -17 6 -28 -5 -13 -4
-16 5 -10 10 6 12 -5 8 -47 -2 -31 -7 -61 -11 -67 -4 -6 -2 -11 3 -11 14 0 14
-37 1 -45 -8 -5 -8 -11 0 -20 8 -10 7 -14 -2 -18 -10 -4 -10 -6 0 -6 14 -1 17
-31 2 -31 -7 0 -7 -6 -1 -18 7 -13 6 -23 -1 -30 -9 -9 -9 -12 1 -12 9 0 12 -9
9 -25 -4 -16 0 -29 9 -34 11 -6 13 -13 5 -27 -5 -10 -8 -28 -6 -39 9 -56 8
-70 -4 -67 -7 1 -12 -9 -12 -28 0 -17 5 -30 13 -30 8 0 7 -4 -3 -10 -12 -8
-13 -13 -2 -30 8 -13 8 -20 1 -20 -5 0 -9 -8 -8 -17 2 -17 -4 -65 -17 -136 -3
-15 -10 -25 -15 -21 -12 7 -11 -3 1 -27 6 -11 7 -19 1 -19 -5 0 -7 -9 -4 -20
3 -11 9 -20 13 -20 10 0 -6 -60 -19 -73 -6 -6 -7 -24 -4 -41 6 -28 5 -30 -10
-17 -9 7 -17 22 -17 31 0 10 -4 20 -10 22 -5 2 -11 14 -14 28 -2 14 -5 25 -6
25 -1 0 -3 34 -4 75 -1 41 -6 81 -10 89 -6 10 -5 12 2 7 7 -4 12 -1 12 8 0 10
-6 13 -15 10 -19 -8 -19 7 0 32 17 23 20 55 4 52 -6 -2 -13 10 -15 27 -2 16
-8 40 -15 52 -8 15 -9 30 -1 51 7 22 7 33 -1 41 -9 9 -9 14 0 19 8 5 8 12 -3
26 -12 18 -14 5 -16 -110 -5 -288 -3 -361 16 -669 3 -44 5 -112 6 -152 0 -79
13 -103 56 -103 13 0 24 -6 24 -13 0 -14 40 -37 65 -37 8 0 15 -8 15 -18 0
-12 13 -23 37 -31 32 -12 38 -12 49 4 12 17 40 12 29 -5 -3 -5 0 -12 7 -16 7
-4 10 -4 6 1 -16 17 37 40 89 40 29 0 53 -2 53 -5 0 -8 156 6 170 15 6 4 17 2
25 -5 10 -8 19 -8 34 -1 26 14 91 14 91 0 0 -6 7 -9 15 -5 8 3 26 1 39 -4 16
-6 28 -5 36 3 9 9 11 9 7 1 -4 -7 0 -14 8 -18 8 -3 15 -1 15 4 0 5 7 7 15 4 9
-4 15 0 15 9 0 20 37 28 51 11 17 -21 59 -17 79 9 10 12 22 18 26 14 5 -4 4
-11 -2 -15 -7 -4 -8 -15 -3 -27 7 -18 8 -18 8 -1 1 12 6 16 16 12 18 -7 32 40
19 62 -11 17 -94 23 -94 7 0 -5 -7 -2 -14 8 -7 9 -19 17 -27 17 -8 0 -3 -10
13 -25 28 -26 44 -33 32 -14 -4 7 -1 10 6 7 21 -7 23 -27 4 -35 -12 -4 -25 2
-41 21 -12 15 -28 24 -33 21 -6 -4 -19 -1 -28 6 -13 11 -13 9 2 -8 17 -21 17
-23 2 -29 -9 -4 -40 -3 -69 1 -29 4 -72 9 -95 11 -24 1 -50 5 -58 8 -8 3 -14
1 -14 -5 0 -5 -10 -3 -23 5 -15 9 -51 13 -115 12 -50 0 -92 2 -92 5 0 4 -33 7
-72 7 -70 1 -170 16 -189 27 -15 10 -11 55 4 49 7 -2 26 7 41 21 15 14 31 25
36 25 5 0 24 14 41 31 17 17 34 27 38 22 9 -11 30 -15 52 -8 23 8 25 25 2 25
-13 0 -11 4 7 20 22 19 24 19 36 2 9 -11 13 -12 14 -4 0 7 8 16 18 19 9 4 23
13 30 20 21 21 73 -9 64 -37 -5 -13 -3 -13 11 -1 9 7 14 17 11 22 -3 5 7 9 21
9 19 0 26 4 22 14 -4 9 3 16 19 19 16 3 24 0 24 -9 0 -17 17 -18 23 -1 3 7 6
5 6 -5 1 -18 32 -21 47 -5 14 13 26 7 15 -7 -10 -12 -8 -17 9 -26 16 -9 19
-15 11 -23 -15 -15 -14 -27 2 -22 6 3 26 1 42 -4 17 -5 23 -10 15 -11 -8 -1
-19 -3 -25 -5 -5 -1 -19 -3 -30 -3 -18 -2 -18 -3 -3 -19 13 -12 20 -13 30 -5
13 10 18 12 37 12 5 0 12 9 16 19 6 19 55 36 55 20 0 -5 -9 -9 -20 -9 -29 0
-25 -27 5 -34 14 -4 23 -11 20 -16 -4 -6 -11 -8 -16 -5 -5 4 -9 -1 -9 -11 0
-11 6 -15 20 -11 11 3 20 2 20 -3 0 -7 32 -21 55 -24 6 -1 16 -6 24 -10 20
-13 54 30 45 58 -4 12 -11 23 -15 24 -19 8 -8 23 12 17 16 -6 20 -4 14 6 -5 8
-4 11 0 6 12 -10 14 -47 3 -47 -5 0 -7 -4 -4 -9 3 -4 18 -6 33 -3 28 5 28 5 9
-17 -15 -16 -22 -18 -33 -10 -10 9 -13 8 -13 -4 0 -12 8 -16 29 -14 16 1 27 5
25 8 -6 10 28 21 35 12 11 -14 41 -11 41 4 0 8 4 12 9 9 5 -3 11 0 14 8 4 9
-4 16 -23 20 -21 4 -31 13 -36 31 -3 14 -4 28 -1 31 10 10 71 7 75 -4 2 -7 11
-12 19 -12 8 0 13 -6 10 -12 -3 -7 -8 -21 -12 -30 -4 -11 -3 -18 4 -18 6 0 11
-7 11 -15 0 -9 9 -15 23 -15 16 0 19 3 8 9 -11 7 -10 10 5 14 18 4 18 5 -1 6
-17 1 -21 8 -22 41 -2 46 2 48 28 18 10 -13 18 -17 19 -10 0 6 -5 12 -11 12
-5 0 -7 5 -4 10 9 15 37 12 32 -2 -2 -7 0 -21 5 -31 6 -13 5 -23 -4 -34 -11
-14 -10 -16 14 -10 15 4 30 3 33 -3 17 -28 45 23 34 63 -6 23 -4 27 15 27 12
0 28 -6 35 -12 13 -14 25 -4 62 52 12 18 17 21 24 10 6 -9 4 -11 -4 -5 -9 5
-12 2 -9 -11 5 -27 45 -30 53 -4 3 11 10 18 15 15 5 -3 7 -12 4 -19 -3 -7 3
-17 13 -20 10 -4 19 -2 21 3 2 6 8 11 13 11 6 0 7 -4 4 -10 -3 -5 2 -23 11
-40 14 -23 21 -27 31 -18 7 6 17 8 20 4 4 -4 1 -11 -7 -16 -13 -8 -13 -11 2
-26 22 -23 38 -10 38 33 0 28 3 34 16 29 9 -3 22 -6 29 -6 15 0 22 -30 37
-153 7 -65 7 -92 -1 -100 -8 -8 -11 -6 -11 6 0 9 -4 17 -10 17 -5 0 -10 -4
-10 -9 0 -17 -41 -19 -70 -4 -32 15 -38 28 -17 36 7 3 5 6 -5 6 -10 1 -18 -3
-18 -9 0 -5 -4 -10 -10 -10 -5 0 -7 7 -4 15 4 8 1 15 -4 15 -6 0 -17 6 -24 13
-7 8 -30 16 -51 20 -33 5 -37 3 -37 -15 0 -14 -5 -18 -16 -14 -9 3 -18 6 -20
6 -3 0 -2 5 1 10 4 6 -5 10 -20 10 -19 0 -29 -6 -32 -20 -5 -20 -6 -20 -25 -3
-18 16 -19 16 -12 -2 6 -14 4 -16 -6 -10 -10 6 -12 4 -8 -7 4 -8 2 -21 -3 -29
-6 -10 -9 -7 -9 12 0 15 -7 30 -16 33 -23 9 -24 8 -24 -14 0 -11 5 -20 10 -20
6 0 10 -4 10 -10 0 -5 -7 -10 -15 -10 -8 0 -15 7 -15 15 0 23 -17 18 -25 -8
l-8 -22 -4 23 c-4 20 -9 22 -33 17 -33 -7 -48 9 -28 32 11 14 10 15 -10 9 -18
-6 -22 -4 -23 16 0 13 -3 17 -6 11 -2 -7 -12 -13 -21 -14 -14 0 -12 -3 6 -16
25 -18 29 -43 7 -43 -8 0 -15 -8 -15 -19 0 -22 42 -33 76 -21 16 7 24 5 28 -6
3 -8 10 -12 16 -9 6 3 13 -1 16 -10 5 -13 9 -12 25 6 11 12 19 17 19 11 0 -5
9 -8 19 -5 10 3 28 0 40 -6 12 -7 21 -8 21 -3 0 16 36 20 55 6 13 -10 22 -11
31 -3 8 7 14 6 20 -2 4 -8 11 -4 20 12 7 13 13 19 14 13 0 -14 40 -26 40 -13
0 5 5 9 10 9 6 0 10 -7 10 -16 0 -8 4 -13 9 -10 13 8 34 -21 25 -35 -4 -8 -3
-9 4 -5 7 4 12 20 12 36 0 17 7 30 16 34 14 5 15 4 4 -9 -7 -9 -9 -19 -5 -23
4 -4 10 -1 12 6 3 6 9 12 14 12 6 0 7 -4 4 -10 -9 -15 8 -12 32 5 20 14 26 14
58 1 19 -8 35 -12 35 -9 0 3 11 -2 24 -10 22 -15 25 -15 37 -1 10 12 10 17 0
23 -7 5 0 8 17 8 24 0 28 -4 24 -20 -4 -16 -2 -19 12 -14 10 4 25 7 34 7 13 0
12 3 -4 15 -19 14 -19 14 2 15 12 0 27 -6 33 -14 12 -14 65 -10 56 4 -3 5 1
11 7 14 7 4 3 4 -9 2 -13 -2 -24 2 -27 11 -4 9 -14 13 -26 10 -22 -6 -28 9 -7
16 19 6 79 -10 88 -25 7 -9 11 -10 17 -2 10 15 56 -2 46 -17 -5 -8 -9 -8 -14
1 -6 9 -9 9 -13 -1 -4 -9 -6 -10 -6 -2 -1 13 -31 6 -31 -7 0 -11 51 -10 73 1
9 6 17 20 17 32 1 21 1 22 15 3 12 -16 12 -22 2 -28 -9 -6 -9 -8 1 -8 7 0 11
-4 7 -9 -3 -5 -1 -12 5 -16 5 -3 10 -2 10 3 0 14 31 24 44 14 6 -5 18 -10 26
-10 8 -1 27 -3 43 -6 15 -2 27 0 27 5 0 4 6 6 13 4 15 -6 30 4 45 30 10 17 11
17 12 3 0 -9 5 -20 12 -24 8 -5 9 -2 5 10 -6 16 -3 15 27 -3 35 -22 86 -28 86
-11 0 6 5 10 11 10 6 0 8 -7 5 -15 -3 -10 1 -18 12 -22 9 -4 25 -15 35 -26 14
-17 17 -17 17 -4 0 9 -11 28 -25 42 -14 14 -22 25 -17 25 4 0 13 -5 20 -12 8
-8 15 -8 26 1 8 7 31 14 51 16 31 3 35 1 30 -16 -4 -10 -2 -19 4 -19 5 0 11 8
14 18 3 14 6 13 14 -7 7 -17 12 -21 17 -12 4 6 3 18 -4 26 -8 10 -8 15 0 20 6
4 14 4 17 1 4 -3 0 -6 -8 -6 -11 0 -11 -2 1 -10 20 -13 33 -12 24 1 -4 7 -1
10 7 7 8 -3 15 -10 15 -16 3 -24 4 -26 16 -14 7 7 23 12 36 12 18 0 22 4 17
19 -3 11 0 23 6 27 8 5 9 3 4 -6 -6 -10 -4 -12 7 -7 9 3 24 -4 36 -18 17 -20
28 -22 81 -20 34 1 61 -1 61 -5 0 -4 17 -8 38 -7 20 0 29 2 20 4 -10 3 -18 9
-18 14 0 5 -7 9 -16 9 -8 0 -12 5 -9 10 3 6 17 7 31 4 13 -3 24 -2 24 2 0 17
-63 14 -76 -4 -11 -15 -12 -14 -11 10 2 26 3 26 75 27 57 1 72 -2 72 -14 0 -9
6 -12 15 -9 8 4 12 10 9 15 -3 5 49 9 120 9 72 0 127 -4 131 -10 3 -5 1 -10
-4 -10 -6 0 -11 -5 -11 -10 0 -7 6 -7 20 0 16 9 20 8 20 -5 0 -8 7 -15 15 -15
8 0 15 3 15 8 0 4 18 6 40 4 22 -2 38 -8 35 -12 -3 -5 -1 -11 5 -15 6 -4 8 -9
6 -13 -5 -9 46 -9 59 0 6 4 29 4 50 1 22 -2 82 -6 133 -7 76 -2 94 0 102 13 8
14 9 14 10 1 0 -13 42 -15 317 -14 175 0 330 -3 345 -7 15 -4 30 -3 33 2 4 5
18 6 32 3 18 -5 24 -3 19 4 -4 6 2 16 13 22 16 8 22 7 29 -6 10 -18 62 -29 62
-13 0 5 5 9 11 9 5 0 8 -3 6 -7 -3 -5 15 -9 39 -11 28 -2 44 1 44 9 0 8 4 8
13 1 32 -27 147 -23 147 6 0 11 3 12 15 2 8 -6 19 -9 25 -5 5 3 10 1 10 -6 0
-8 4 -8 16 2 13 10 17 10 25 -2 6 -10 9 -10 9 -1 0 6 11 12 25 12 14 0 25 -5
25 -12 0 -9 3 -9 12 0 16 16 28 15 28 -2 0 -14 29 -31 38 -21 3 2 -1 11 -7 19
-8 10 -9 16 -1 21 5 3 10 1 10 -6 0 -8 4 -8 15 1 12 10 15 10 15 -3 0 -8 7
-18 16 -21 24 -9 31 -7 11 5 -9 6 -15 14 -12 19 7 12 37 1 53 -18 11 -14 13
-14 25 0 6 9 29 19 50 22 23 5 37 12 34 19 -3 8 -29 11 -80 10 -47 -1 -77 2
-77 8 0 6 -4 8 -8 5 -20 -12 -67 -14 -86 -4 -12 6 -38 24 -58 40 -37 29 -58
30 -58 3 0 -8 -7 -11 -20 -8 -10 3 -26 -2 -35 -10 -11 -12 -22 -13 -46 -7 -20
6 -39 6 -50 0 -24 -14 -80 -13 -59 0 11 7 1 9 -31 7 -35 -1 -45 -5 -41 -16 3
-9 0 -12 -9 -7 -8 3 -22 9 -31 12 -10 4 -18 10 -18 15 0 5 -10 -1 -21 -12 -12
-12 -24 -17 -28 -12 -10 15 -40 23 -47 12 -4 -6 -11 -6 -20 2 -11 9 -14 9 -14
0 0 -7 -11 -11 -27 -9 -27 3 -29 6 -24 61 1 7 18 31 40 53 30 31 36 45 29 57
-5 10 -18 17 -29 17 -16 0 -18 3 -10 19 6 10 7 22 3 26 -4 5 -2 6 3 2 6 -3 21
1 35 9 25 13 25 13 3 14 -13 0 -23 4 -23 9 0 5 -10 12 -22 14 -13 2 -8 3 9 1
24 -2 36 2 43 16 10 18 8 19 -20 14 -20 -4 -30 -2 -30 5 0 7 6 11 13 10 6 -1
21 2 31 6 13 5 21 5 23 -2 2 -6 12 -10 21 -8 9 1 12 0 5 -2 -6 -2 -14 -11 -17
-19 -4 -12 -2 -12 14 -4 11 6 25 8 30 5 6 -3 10 1 10 9 0 20 5 20 42 -1 29
-18 30 -17 48 4 20 25 16 63 -6 63 -8 0 -11 6 -8 15 4 10 19 15 48 14 32 0 37
-2 21 -9 -18 -8 -17 -9 8 -9 15 -1 27 -5 27 -9 0 -4 37 -4 83 1 108 11 119 10
129 -5 6 -11 10 -10 17 1 8 12 13 12 36 -3 19 -13 42 -16 86 -14 56 3 74 10
47 21 -9 4 -8 6 2 6 8 1 21 -8 28 -20 7 -12 16 -18 19 -15 4 3 15 -1 25 -11
12 -11 18 -12 18 -3 0 6 6 10 14 7 7 -3 32 -1 55 4 23 5 48 6 54 2 7 -4 36 -6
66 -4 51 3 54 2 48 -18 -3 -12 -1 -21 4 -21 5 0 9 9 9 19 0 11 5 23 10 26 7 4
9 -3 5 -22 -6 -24 -5 -26 7 -12 15 17 42 30 75 34 11 2 30 6 42 10 15 5 21 2
21 -9 0 -23 11 -20 40 11 l25 26 6 -29 c5 -23 7 -25 8 -6 1 24 10 26 104 24
29 0 47 4 48 11 0 7 4 1 10 -11 5 -13 7 -28 3 -33 -3 -5 2 -9 10 -9 9 0 16 9
16 20 0 11 5 20 10 20 6 0 10 -7 10 -16 0 -11 6 -14 22 -9 16 6 20 4 15 -8 -5
-13 -1 -14 24 -7 20 6 29 5 29 -3 0 -9 2 -9 8 0 10 16 92 5 92 -13 0 -8 5 -14
11 -14 6 0 8 -9 3 -22 -7 -23 -6 -23 13 1 l20 24 30 -31 c17 -18 37 -32 45
-32 8 0 20 -6 27 -12 10 -11 12 -10 9 1 -2 7 3 16 10 18 7 3 12 -5 12 -21 0
-18 4 -24 14 -20 8 3 20 -3 27 -14 7 -11 19 -18 26 -15 7 3 19 0 27 -6 7 -6
16 -8 19 -4 4 3 13 0 21 -6 10 -8 16 -9 21 -1 3 5 -1 10 -9 10 -9 0 -16 7 -16
15 0 22 59 20 67 -2 10 -26 33 -47 41 -38 4 4 1 10 -5 12 -7 3 -13 14 -13 26
1 21 1 21 15 3 10 -13 22 -17 40 -14 19 4 25 2 21 -7 -3 -8 5 -16 18 -19 17
-4 25 -17 32 -49 10 -42 10 -43 -13 -39 -13 2 -23 11 -23 19 0 8 4 12 8 9 5
-3 6 9 4 25 -7 46 -27 28 -25 -22 0 -24 -1 -34 -4 -21 -2 12 -9 20 -14 16 -5
-3 -6 -10 -3 -16 5 -8 1 -9 -11 -4 -10 4 -28 0 -41 -9 -13 -9 -24 -11 -24 -7
0 5 -19 8 -42 7 -24 -2 -52 -3 -63 -4 -20 -1 -34 -41 -14 -41 5 0 9 8 9 18 0
13 2 14 9 3 6 -9 18 -11 34 -7 14 3 28 2 31 -3 3 -5 -8 -11 -25 -15 -17 -3
-28 -10 -24 -15 3 -6 12 -8 19 -5 8 3 17 0 21 -5 3 -6 10 -9 14 -6 15 9 111
15 111 7 0 -17 -13 -21 -36 -11 -19 7 -26 5 -31 -6 -4 -12 -8 -13 -19 -4 -12
10 -13 9 -8 -5 7 -17 34 -22 34 -6 0 13 37 13 42 -1 4 -13 78 -20 78 -7 0 7
47 6 97 -3 31 -5 43 3 43 30 0 34 23 47 42 24 10 -13 10 -17 0 -20 -6 -3 -10
-9 -6 -14 8 -14 24 -11 24 6 0 8 6 15 13 15 8 0 7 4 -3 11 -12 9 -12 10 4 5
11 -4 23 -1 28 6 8 10 11 10 15 1 2 -7 9 -13 14 -13 6 0 8 4 5 9 -7 10 19 23
28 14 11 -11 6 -24 -6 -17 -10 6 -10 4 0 -7 10 -10 14 -11 25 0 10 10 8 15 -7
27 -16 11 -17 17 -8 26 9 9 12 9 12 -3 0 -12 2 -12 9 0 11 17 32 5 24 -14 -4
-11 -1 -13 12 -9 15 6 15 8 -3 26 -16 16 -36 21 -111 23 -67 2 -89 0 -84 -8 4
-7 -1 -6 -10 2 -9 7 -27 11 -39 8 -29 -8 -48 9 -48 44 0 15 -5 31 -11 34 -6 4
-9 23 -7 43 2 23 -2 37 -11 40 -11 4 -12 -2 -7 -23 6 -25 5 -27 -8 -16 -11 10
-13 18 -6 31 13 25 13 30 -5 30 -8 0 -15 5 -15 10 0 7 6 7 19 1 10 -6 21 -8
24 -5 3 3 8 -4 12 -15 3 -12 10 -21 15 -21 5 0 15 -3 24 -6 10 -4 16 -1 16 7
0 7 -3 10 -6 6 -4 -3 -13 0 -20 8 -17 17 -18 29 -1 18 25 -16 57 -14 57 3 0 9
10 18 22 22 20 5 20 6 3 12 -16 6 -16 8 -3 20 8 8 13 25 10 39 -3 21 -1 23 7
11 9 -12 11 -11 11 8 0 24 8 26 100 24 24 -1 47 4 51 10 9 15 47 0 54 -21 3
-10 17 -28 30 -41 22 -20 25 -21 25 -6 0 14 9 10 43 -17 45 -37 156 -80 172
-67 6 4 31 11 58 14 26 4 47 11 47 17 0 5 7 9 15 9 10 0 15 10 15 30 0 18 6
33 15 36 8 4 15 12 15 18 0 7 11 23 25 36 14 13 25 32 25 42 0 10 4 18 9 18
10 0 2 48 -9 55 -5 3 -19 1 -32 -3 -26 -10 -48 -5 -48 10 0 5 10 9 23 8 45 -4
47 -2 32 33 -22 53 -25 108 -26 457 -1 184 -2 358 -2 385 0 88 2 110 13 113
14 5 13 34 -3 57 -15 22 -16 63 -3 84 5 8 5 12 0 8 -5 -3 -9 17 -9 43 0 43 2
47 18 39 10 -6 17 -6 17 0 0 5 -6 12 -12 14 -10 4 -10 8 -1 14 13 10 16 112 3
133 -5 8 -4 22 2 33 8 15 7 18 -4 11 -11 -6 -11 -5 1 9 7 9 10 17 5 17 -5 0
-10 23 -12 50 -3 44 -1 50 16 50 15 0 21 9 25 32 2 18 1 38 -4 44 -6 7 -5 22
1 38 9 26 4 82 -10 101 -5 6 -2 16 6 23 12 11 14 9 14 -9 0 -12 3 -19 7 -16 3
4 14 0 23 -8 12 -11 17 -12 17 -3 0 7 4 22 8 33 4 11 3 15 -2 9 -9 -13 -43
-15 -43 -2 0 5 -11 13 -25 18 -14 5 -25 16 -25 24 0 9 6 13 14 10 21 -8 29 27
9 42 -10 7 -13 14 -8 14 14 0 18 50 5 50 -6 0 -10 7 -10 16 0 17 50 -37 54
-58 1 -7 7 -22 13 -33 11 -18 12 -18 9 8 -1 15 -6 30 -9 34 -12 12 -7 22 14
28 14 5 18 10 11 17 -6 6 -8 17 -4 26 4 11 1 14 -11 9 -11 -4 -17 -1 -17 9 0
8 4 13 9 9 5 -3 13 0 17 6 5 9 1 10 -14 7 -26 -7 -53 19 -33 32 8 4 9 9 3 11
-6 2 -12 18 -14 34 -2 25 1 31 20 33 12 2 22 7 22 12 0 5 8 11 18 13 14 4 14
5 -3 6 -17 1 -18 3 -5 12 13 9 12 10 -2 5 -26 -8 -48 3 -48 25 0 10 -4 19 -10
19 -5 0 -10 7 -10 15 0 8 -4 15 -10 15 -5 0 -10 5 -10 11 0 8 4 8 13 1 6 -6
24 -10 38 -9 23 2 25 4 15 22 -6 11 -15 23 -21 27 -5 4 -9 28 -10 55 0 26 -3
53 -6 58 -7 12 15 57 24 48 4 -3 8 1 9 10 0 9 1 22 2 27 1 6 -3 10 -9 10 -5 0
-10 -6 -11 -13 -3 -40 -34 -59 -34 -20 0 10 6 13 17 9 15 -6 15 -4 -2 14 -10
11 -13 20 -7 20 7 0 12 5 12 10 0 6 -8 10 -17 8 -13 -2 -19 5 -21 22 -2 23 -1
24 11 7 20 -24 28 -21 21 8 -3 14 -2 25 4 25 5 0 8 15 6 33 -1 17 -3 39 -3 47
-1 8 -10 0 -22 -19 -11 -18 -23 -30 -26 -27 -4 4 -1 12 5 18 15 15 16 32 2 23
-5 -3 -10 1 -10 10 0 11 5 15 15 11 9 -3 15 0 15 10 0 8 -7 17 -15 20 -28 11
-15 104 16 104 10 0 21 5 24 10 3 5 -1 10 -9 10 -9 0 -19 12 -22 26 -4 16 -11
23 -20 20 -11 -4 -12 -1 -5 13 6 10 7 21 4 25 -4 4 3 13 15 22 l23 15 -24 28
c-19 23 -23 38 -22 85 1 37 7 61 16 68 11 7 11 11 2 15 -18 7 -16 26 1 20 8
-3 20 2 28 11 7 8 8 13 2 9 -6 -4 -18 1 -27 11 -17 18 -17 80 -2 171 6 32 5
42 -3 37 -9 -5 -12 10 -14 51 0 32 0 65 1 73 1 8 1 43 1 78 0 41 4 62 12 62 9
0 9 3 0 12 -16 16 -15 75 1 82 9 3 8 8 -3 18 -12 10 -15 42 -16 156 l-1 143
25 -6 c22 -6 23 -5 8 10 -9 9 -16 32 -16 51 0 19 -4 34 -10 34 -13 0 -13 37 0
45 5 3 10 21 10 38 0 18 7 42 15 53 9 14 13 38 10 68 -3 34 0 49 11 53 26 10
15 23 -15 17 -40 -8 -49 27 -15 58 29 28 31 54 4 68 -20 11 -20 12 12 45 19
21 36 31 42 26 6 -5 20 -5 31 0 11 4 15 8 9 8 -7 1 -14 10 -17 20 -4 15 -1 18
12 14 9 -4 13 -2 8 3 -10 10 -57 13 -57 3 0 -10 -40 -18 -56 -12 -12 4 -14 20
-11 66 3 34 1 72 -4 84 -5 13 -4 25 1 28 6 4 10 17 10 31 0 13 5 24 10 24 6 0
10 7 10 16 0 9 8 23 18 30 16 12 16 13 -4 14 -17 0 -23 8 -28 35 -6 31 -8 568
-5 1055 2 174 1 213 -2 257 -1 15 4 29 10 31 6 2 11 13 11 23 0 11 -4 17 -10
14 -12 -7 -14 8 -3 19 5 4 6 35 4 68 -2 42 0 58 8 54 8 -5 8 0 1 20 -6 15 -13
50 -15 78 -3 28 -7 77 -11 108 -5 48 -3 59 10 64 9 3 16 12 16 19 0 7 5 15 11
17 14 5 -10 58 -27 58 -19 0 -24 40 -23 182 1 132 -5 188 -22 188 -4 0 -7 16
-5 35 1 21 -3 36 -11 39 -9 4 -13 -4 -13 -24 0 -17 -4 -30 -10 -30 -10 0 -14
32 -10 78 1 13 -3 29 -10 36 -7 10 -8 27 -1 57 7 30 7 46 -1 50 -5 4 -13 28
-15 55 -3 27 -10 55 -16 62 -7 8 -5 12 7 12 9 0 16 5 16 10 0 6 -5 10 -11 10
-8 0 -7 6 2 17 11 13 11 17 2 20 -20 7 -15 23 7 23 11 0 19 5 18 12 -3 12 3
14 41 17 10 0 29 10 42 22 l24 20 -24 -7 c-23 -6 -23 -6 -7 17 11 16 16 44 16
87 0 35 5 73 12 85 25 47 -6 167 -44 167 -15 0 -18 -5 -12 -22 4 -13 12 -27
18 -31 7 -6 4 -7 -7 -3 -10 3 -21 6 -23 6 -2 0 -4 7 -4 15 0 13 -16 18 -55 18
-5 0 -20 -3 -32 -7 -15 -5 -28 -1 -41 12 -18 18 -21 19 -55 2 -40 -20 -47 -17
-47 16 0 34 -59 47 -230 49 -80 1 -154 3 -165 3 -11 1 -118 1 -238 1 -200 -1
-219 0 -231 17 -8 10 -11 24 -9 31 3 8 2 13 -3 12 -5 -1 -13 0 -19 1 -5 1 -19
3 -30 3 -11 1 -21 7 -22 12 -1 6 6 9 16 7 10 -1 29 9 42 23 26 28 66 55 55 37
-4 -6 7 -12 26 -15 l33 -3 -33 -9 c-23 -5 -29 -10 -21 -16 7 -4 19 -3 26 2 8
7 18 7 33 -1 21 -11 44 -5 35 10 -3 5 -13 6 -22 3 -15 -6 -16 -5 -3 9 13 13
16 14 23 2 4 -8 14 -14 20 -14 7 0 18 -5 25 -12 12 -12 17 -13 86 -22 45 -6
51 -10 42 -33 -6 -15 -8 -15 -16 -3 -6 9 -10 10 -10 3 0 -19 18 -25 32 -10 7
8 22 12 33 10 15 -4 17 -2 6 5 -12 9 -12 13 2 26 17 18 32 22 22 6 -3 -5 -1
-10 4 -10 10 0 15 17 14 48 -1 14 45 16 65 3 11 -7 11 -9 -2 -14 -25 -10 -19
-25 12 -26 69 -3 104 -1 121 8 9 6 46 9 82 7 35 -2 59 -1 52 1 -10 3 -10 9 0
24 13 21 31 26 25 7 -3 -7 1 -18 7 -24 12 -13 115 -23 115 -13 0 4 18 6 41 5
30 -2 43 2 50 15 13 24 12 28 -8 24 -10 -1 -12 0 -5 2 6 3 12 9 12 15 0 5 6 8
13 5 7 -3 19 4 25 14 7 10 20 19 29 19 32 0 2 14 -35 16 -20 1 -56 5 -79 8
-24 2 -45 1 -48 -3 -2 -5 -25 -4 -51 2 -32 8 -51 8 -62 0 -10 -5 -26 -7 -37
-2 -31 12 -45 10 -45 -6 0 -8 -4 -15 -10 -15 -5 0 -10 6 -10 14 0 12 -23 15
-112 17 -561 10 -1239 12 -1478 4 -85 -2 -195 -4 -245 -4 -103 1 -116 1 -205
-1 -36 -1 -77 3 -92 9 -19 7 -31 6 -48 -6 -13 -9 -20 -12 -17 -6 10 15 -12 20
-53 12 -19 -3 -28 -7 -20 -8 10 -1 11 -4 3 -12 -13 -13 -36 -3 -28 12 9 14 -5
11 -22 -6 -16 -17 -33 -12 -33 11 0 11 -15 14 -70 13 -38 -1 -70 -5 -70 -10 0
-5 -12 -4 -26 1 -45 18 -98 12 -112 -11z m213 -9 c3 -5 -3 -10 -14 -10 -11 0
-23 5 -26 10 -3 6 3 10 14 10 11 0 23 -4 26 -10z m2709 -26 c3 -8 2 -12 -4 -9
-6 3 -10 10 -10 16 0 14 7 11 14 -7z m-202 -16 c-3 -14 -7 -16 -18 -7 -20 16
-17 28 5 26 12 -1 17 -7 13 -19z m-104 -14 c15 -16 7 -20 -85 -47 -45 -13 -51
-13 -46 0 3 8 16 19 29 23 15 6 22 15 18 24 -11 28 56 28 84 0z m152 7 c14
-27 13 -54 -2 -48 -7 2 -12 12 -10 21 2 10 -2 24 -9 32 -8 9 -8 14 -1 14 6 0
16 -9 22 -19z m-2643 3 c-3 -3 -12 -4 -19 -1 -8 3 -5 6 6 6 11 1 17 -2 13 -5z
m96 -1 c-7 -2 -19 -2 -25 0 -7 3 -2 5 12 5 14 0 19 -2 13 -5z m123 -5 c-55 -7
-82 -6 -89 1 -8 8 14 11 79 10 l89 -2 -79 -9z m1979 -18 c13 0 26 -4 29 -9 3
-5 -12 -8 -34 -7 -22 0 -40 2 -40 3 0 1 3 9 7 19 4 11 8 13 11 6 2 -7 14 -12
27 -12z m-530 -10 c-3 -5 -13 -10 -21 -10 -8 0 -14 5 -14 10 0 6 9 10 21 10
11 0 17 -4 14 -10z m-319 -15 c-3 -8 -9 -22 -12 -30 -3 -8 -1 -15 5 -15 6 0
11 5 11 11 0 5 5 7 11 3 7 -4 8 -9 1 -13 -5 -3 -13 -20 -16 -38 -6 -25 -4 -32
11 -36 14 -4 13 -5 -4 -6 -14 -1 -23 5 -23 14 0 8 -9 15 -20 15 -21 0 -28 19
-7 21 10 0 10 2 0 6 -15 6 -17 43 -3 43 6 0 10 -6 10 -14 0 -7 7 -20 17 -27
15 -13 15 -11 -1 19 -15 29 -15 33 -1 38 8 3 12 10 9 15 -3 5 0 9 6 9 7 0 9
-7 6 -15z m218 3 c-3 -4 -9 -8 -15 -8 -5 0 -9 4 -9 8 0 5 7 9 15 9 8 0 12 -4
9 -9z m175 -7 c12 -22 -12 -81 -34 -81 -7 0 -15 -5 -17 -12 -2 -6 -21 -12 -41
-12 -20 -1 -37 -5 -37 -11 -1 -11 -29 35 -30 48 0 5 4 5 10 2 6 -3 7 1 4 9 -3
9 -10 16 -15 16 -5 0 -9 6 -9 14 0 8 8 13 17 12 10 -2 18 -11 18 -22 0 -25 38
-30 67 -10 12 9 30 16 40 16 10 0 18 4 18 9 0 14 -23 19 -42 10 -10 -6 -19 -5
-23 1 -3 6 4 14 17 19 35 14 46 13 57 -8z m321 9 c0 -5 -8 -10 -17 -10 -15 0
-16 2 -3 10 19 12 20 12 20 0z m-3183 -13 c7 -4 14 -3 18 3 4 6 13 7 23 2 9
-5 33 -7 52 -6 58 6 501 10 557 6 33 -2 54 -9 57 -18 4 -9 2 -12 -5 -8 -8 4
-9 -1 -4 -17 6 -20 5 -22 -6 -11 -13 12 -38 18 -26 5 8 -7 -11 -33 -24 -33 -5
0 -6 7 -2 16 5 14 3 14 -14 3 -25 -15 -53 -5 -60 21 -3 11 -9 20 -14 20 -5 0
-6 -12 -3 -26 5 -19 4 -25 -5 -20 -6 4 -11 16 -11 27 0 18 -5 19 -52 13 -29
-4 -55 -10 -58 -14 -3 -4 -12 -10 -20 -14 -9 -3 -6 -5 7 -2 12 2 25 -1 28 -8
3 -8 7 -8 11 2 7 14 33 16 54 2 12 -7 10 -11 -10 -18 l-25 -9 23 -7 c12 -4 22
-12 22 -17 0 -9 -15 -12 -63 -11 -16 0 -25 -4 -21 -9 3 -6 22 -10 43 -9 20 1
41 1 46 0 6 -1 27 -1 48 0 21 1 37 -3 37 -9 0 -8 -111 -11 -365 -10 -354 0
-365 1 -365 20 0 11 7 19 16 19 14 0 14 3 4 15 -10 12 -9 15 7 15 21 0 28 -30
9 -42 -6 -4 42 -8 107 -8 71 0 117 4 117 10 0 6 5 10 11 10 5 0 7 -4 4 -10 -4
-6 7 -10 25 -10 22 0 29 4 24 13 -5 7 0 6 11 -3 10 -8 16 -10 12 -3 -5 7 1 17
14 24 17 8 23 8 30 -2 6 -10 11 -10 25 2 16 13 17 12 12 -8 -5 -18 -2 -23 14
-23 10 0 17 4 13 9 -3 5 5 11 17 13 36 5 31 42 -7 46 -16 2 -36 8 -43 14 -9 8
-17 6 -30 -6 -22 -20 -32 -20 -32 -3 0 8 -10 19 -22 25 -13 6 -17 11 -10 11 7
1 10 6 7 11 -10 16 -22 11 -30 -12 l-8 -23 -4 23 c-2 12 -11 22 -19 22 -9 0
-12 -5 -8 -12 5 -7 2 -9 -8 -5 -12 4 -14 1 -10 -15 4 -18 2 -19 -15 -10 -11 6
-30 8 -41 5 -12 -3 -29 0 -37 7 -8 6 -19 9 -26 5 -8 -6 -7 -10 2 -16 8 -5 9
-9 3 -9 -6 0 -17 7 -24 15 -9 11 -17 12 -31 4 -13 -7 -19 -6 -19 1 0 6 -5 8
-10 5 -6 -4 -18 -1 -26 6 -8 7 -41 14 -72 15 -69 3 -64 2 -58 13 6 10 217 8
233 -2z m3310 -14 c-14 -14 -19 -15 -29 -4 -11 10 -10 11 5 6 10 -4 17 -2 17
4 0 6 5 11 12 11 8 0 6 -6 -5 -17z m-631 -10 c21 -28 17 -45 -8 -41 -13 2 -22
9 -20 16 1 8 -2 11 -7 8 -11 -7 -41 3 -41 14 0 5 12 11 28 13 15 2 29 5 31 6
2 0 10 -7 17 -16z m-1882 -45 c-7 -10 -34 -10 -34 0 0 4 5 13 12 20 9 9 14 9
19 0 4 -7 5 -16 3 -20z m1716 1 c0 -6 -4 -7 -10 -4 -5 3 -10 11 -10 16 0 6 5
7 10 4 6 -3 10 -11 10 -16z m-463 -11 c-3 -8 -6 -5 -6 6 -1 11 2 17 5 13 3 -3
4 -12 1 -19z m589 14 c14 -9 28 -52 17 -52 -16 0 -30 15 -35 38 -6 23 -1 27
18 14z m-2566 -12 c-11 -7 -11 -10 -2 -10 7 0 10 -5 7 -10 -5 -8 -11 -7 -21 1
-17 14 -9 29 14 29 15 0 15 -2 2 -10z m70 -6 c0 -2 -12 -4 -26 -4 -14 0 -23 4
-20 9 6 8 46 4 46 -5z m2013 -9 c15 -3 27 -10 27 -16 0 -14 -78 -3 -97 13 -22
18 -15 27 15 17 15 -4 39 -11 55 -14z m745 16 c11 -7 11 -9 -1 -14 -16 -6 -27
0 -27 15 0 10 11 10 28 -1z m-2323 -19 c-3 -3 -11 0 -18 7 -9 10 -8 11 6 5 10
-3 15 -9 12 -12z m45 -2 c-7 -4 -10 -13 -6 -19 4 -7 1 -9 -8 -5 -12 5 -13 10
-5 25 5 11 15 17 21 13 7 -4 6 -9 -2 -14z m120 0 c0 -5 -2 -10 -4 -10 -3 0 -8
5 -11 10 -3 6 -1 10 4 10 6 0 11 -4 11 -10z m55 -8 c-3 -3 -11 0 -18 7 -9 10
-8 11 6 5 10 -3 15 -9 12 -12z m-62 -23 c23 -1 48 -1 55 0 6 1 12 -2 12 -7 0
-10 -82 -22 -150 -22 l-45 1 24 19 c18 16 27 18 37 9 11 -9 14 -7 15 12 1 17
3 19 6 7 3 -13 16 -18 46 -19z m2142 21 c3 -5 -1 -10 -9 -10 -9 0 -16 5 -16
10 0 6 4 10 9 10 6 0 13 -4 16 -10z m-1905 -28 c0 -13 -130 -16 -143 -3 -5 5
26 9 67 9 42 1 76 -2 76 -6z m70 -2 c0 -5 -4 -10 -10 -10 -5 0 -10 5 -10 10 0
6 5 10 10 10 6 0 10 -4 10 -10z m140 2 c0 -4 -16 -9 -37 -9 -24 -1 -32 2 -22
8 18 11 59 12 59 1z m100 -2 c0 -5 -2 -10 -4 -10 -3 0 -8 5 -11 10 -3 6 -1 10
4 10 6 0 11 -4 11 -10z m2503 -10 c9 0 17 -4 17 -10 0 -15 -50 -11 -85 6 l-30
14 40 -5 c22 -3 48 -5 58 -5z m-4033 -4 c0 -2 -13 -9 -30 -15 -23 -7 -30 -7
-30 2 0 7 14 14 30 15 17 1 30 0 30 -2z m43 -3 c-7 -2 -19 -2 -25 0 -7 3 -2 5
12 5 14 0 19 -2 13 -5z m-2713 -48 c-13 -14 -26 -22 -29 -19 -3 3 5 14 18 25
33 27 39 24 11 -6z m-88 -26 c-23 -21 -40 -29 -54 -26 -16 5 -19 2 -16 -17 5
-23 -17 -53 -27 -36 -3 5 -13 6 -22 3 -15 -6 -15 -7 1 -13 15 -5 15 -9 -8 -35
-19 -22 -22 -33 -15 -47 12 -22 21 -24 13 -3 -5 11 -2 13 9 9 12 -4 14 -11 7
-27 -19 -47 -35 -77 -43 -77 -5 0 -5 -5 -2 -10 4 -6 -7 -24 -24 -40 -30 -30
-48 -40 -35 -18 5 8 0 9 -15 5 -20 -5 -22 -3 -17 20 5 16 3 22 -4 18 -6 -3
-10 3 -10 14 0 12 -6 21 -14 21 -8 0 -16 7 -20 15 -3 8 -1 15 4 15 6 0 10 7
10 15 0 8 7 15 15 15 8 0 15 -9 15 -20 0 -11 5 -20 11 -20 5 0 7 -4 4 -10 -3
-5 -4 -10 -1 -10 3 0 10 10 17 21 8 15 8 19 0 15 -6 -4 -11 -2 -11 3 0 6 5 11
11 11 6 0 9 6 6 13 -2 6 -11 11 -20 9 -14 -2 -14 0 0 29 10 21 18 27 23 19 5
-8 10 -9 14 -2 3 6 0 12 -6 15 -17 6 61 76 85 77 10 0 21 8 24 18 12 31 61 60
103 61 25 1 25 1 -8 -30z m-272 1 c16 -13 20 -20 10 -19 -16 0 -50 22 -50 33
0 11 14 6 40 -14z m165 -30 c3 -5 -1 -10 -10 -10 -9 0 -13 5 -10 10 3 6 8 10
10 10 2 0 7 -4 10 -10z m-205 -23 c0 -7 -4 -6 -10 3 -8 13 -10 12 -10 -4 0
-11 -3 -17 -6 -13 -4 3 -4 13 0 22 6 18 26 11 26 -8z m7053 -39 c-4 -24 -7
-60 -6 -81 1 -21 -3 -35 -8 -32 -12 8 -12 112 1 136 16 30 20 23 13 -23z m295
17 c-3 -11 -58 -14 -58 -4 0 7 37 17 53 15 5 -1 7 -6 5 -11z m-177 -59 c-1 -3
6 -22 14 -42 18 -43 18 -44 5 -44 -5 0 -14 17 -19 38 -12 41 -14 68 -5 60 3
-4 5 -9 5 -12z m29 -106 c0 -5 -2 -10 -4 -10 -3 0 -8 5 -11 10 -3 6 -1 10 4
10 6 0 11 -4 11 -10z m-1612 -49 c25 -13 46 -40 39 -48 -4 -3 -18 2 -31 11
-34 22 -56 20 -56 -4 0 -13 5 -18 15 -14 8 4 15 1 15 -5 0 -6 11 -17 25 -23
14 -6 25 -18 25 -26 0 -9 10 -26 23 -40 l22 -24 -3 -611 c-6 -1181 -14 -3024
-13 -3187 1 -424 5 -712 8 -682 3 19 10 32 19 32 17 0 19 -27 2 -32 -7 -3 -8
-10 -4 -17 7 -11 10 -11 17 0 7 11 9 10 9 -3 0 -12 -8 -18 -24 -18 l-24 0 4
-347 c3 -192 9 -377 14 -412 5 -36 6 -69 3 -74 -3 -5 -5 -125 -4 -266 2 -484
19 -865 42 -944 13 -48 21 -44 10 5 -7 29 -6 35 5 31 7 -3 21 2 29 11 9 9 23
16 31 16 9 0 14 11 14 32 0 40 11 30 16 -14 5 -44 14 -99 20 -120 3 -10 1 -18
-5 -18 -6 0 -11 6 -11 14 0 7 -7 19 -15 26 -21 17 -19 2 6 -62 28 -72 82 -142
124 -162 55 -27 134 -37 360 -47 374 -16 388 -20 451 -110 26 -38 29 -50 29
-120 0 -49 -5 -83 -12 -91 -7 -6 -13 -24 -13 -39 0 -15 -5 -31 -12 -35 -7 -5
-9 -2 -4 7 4 8 1 6 -6 -5 -7 -10 -23 -28 -36 -40 -13 -11 -35 -33 -50 -47 -24
-23 -50 -33 -147 -55 -16 -3 -93 -8 -170 -9 -87 -2 -141 -8 -143 -14 -2 -6
-13 -11 -23 -11 -11 0 -17 5 -14 10 4 6 -23 10 -75 10 -52 0 -79 -4 -75 -10 3
-5 -1 -10 -10 -10 -9 0 -13 5 -10 10 9 15 23 15 -950 5 -385 -4 -758 -6 -830
-5 l-130 1 -94 45 c-97 47 -119 66 -160 143 -20 39 -23 54 -18 110 3 37 15 92
26 124 11 31 18 57 15 57 -2 0 2 12 9 28 7 15 13 43 11 63 -2 41 19 61 51 48
14 -5 15 -8 5 -8 -9 -1 -23 -14 -33 -30 -16 -27 -16 -29 1 -36 9 -5 25 -7 36
-6 11 2 16 -2 12 -8 -4 -6 0 -11 8 -11 8 0 18 4 21 10 3 5 16 8 28 6 12 -1 42
2 67 9 25 6 125 13 225 14 169 2 233 10 262 33 7 6 11 14 8 18 -2 4 9 7 25 8
17 0 40 4 53 7 18 5 16 2 -8 -14 -16 -12 -25 -21 -20 -21 6 0 21 9 34 19 l24
18 -24 18 c-17 13 -19 16 -5 11 13 -4 28 4 52 30 19 19 34 40 34 45 0 5 5 9
11 9 6 0 8 -9 4 -20 -10 -31 3 -24 21 12 57 111 82 318 89 756 8 498 25 1243
30 1368 2 60 7 422 11 804 3 382 7 729 9 770 2 41 6 359 10 705 5 526 9 632
21 641 7 6 12 13 10 15 -3 2 7 5 20 5 32 2 41 11 27 25 -7 7 -17 8 -25 3 -33
-21 -58 -5 -60 38 -1 22 -21 90 -50 168 -14 40 -42 84 -70 114 -10 11 -18 23
-18 27 0 16 -92 71 -158 95 -72 27 -105 30 -417 39 -257 8 -331 28 -372 100
-34 61 -47 131 -38 218 5 64 12 83 37 114 16 21 46 47 66 58 20 11 43 25 49
32 19 17 131 28 288 28 159 -1 193 -5 324 -35 106 -25 156 -23 229 11 26 12
53 23 61 25 8 1 17 7 20 13 3 5 19 13 35 17 20 5 24 9 14 15 -10 7 -9 9 5 9
48 0 201 159 267 278 14 23 61 104 95 160 6 9 23 38 38 64 16 26 49 65 74 87
30 28 43 46 39 57 -4 9 -13 14 -22 10 -8 -3 -12 -2 -9 4 3 6 4 10 1 10 -17 0
-113 -24 -121 -30 -11 -8 -65 -20 -65 -14 0 2 23 15 50 29 79 40 285 50 348
16z m-3351 -14 c36 -25 48 -40 48 -60 1 -15 10 -37 22 -49 25 -28 39 -68 23
-68 -6 0 -10 -20 -9 -52 4 -99 -13 -1263 -18 -1271 -8 -13 -31 12 -43 47 -6
18 -21 42 -33 52 -12 11 -32 33 -45 48 -25 33 -27 33 -37 -11 -5 -26 -2 -35
16 -50 42 -35 69 -64 65 -71 -8 -14 40 -97 61 -107 l23 -10 -1 -362 c0 -199
-4 -376 -9 -392 -5 -18 -5 -33 0 -36 5 -3 10 -387 11 -863 1 -730 1 -935 -3
-1202 0 -19 2 -276 6 -570 3 -294 6 -641 6 -770 0 -408 2 -694 5 -720 1 -14 4
-63 5 -110 3 -85 3 -85 9 -25 l6 60 8 -45 c12 -69 28 -107 51 -120 14 -7 15
-9 4 -6 -21 6 -22 -2 -3 -27 7 -11 12 -24 9 -30 -5 -15 4 -27 41 -56 17 -12
32 -32 35 -44 3 -12 12 -22 20 -22 8 0 18 -4 21 -8 3 -5 26 -11 49 -13 24 -2
46 -8 49 -12 9 -13 72 -33 82 -26 5 3 9 1 9 -3 0 -12 18 -13 241 -16 l195 -2
75 -37 c163 -81 204 -184 133 -334 -28 -59 -86 -116 -148 -145 -34 -16 -71
-29 -83 -29 -12 0 -25 -4 -28 -10 -3 -5 -18 -10 -33 -9 l-27 1 25 8 c23 7 23
8 3 9 -12 1 -24 -2 -27 -7 -2 -4 -35 -6 -73 -5 -39 1 -60 -2 -49 -6 12 -5 -13
-8 -62 -9 -44 -1 -84 3 -87 8 -3 6 -15 10 -26 10 -11 0 -18 -4 -15 -8 3 -5
-342 -8 -767 -9 -425 0 -853 -2 -952 -5 -154 -5 -191 -3 -259 13 -130 32 -225
94 -265 174 -20 40 -23 58 -19 115 4 47 12 80 28 105 30 48 20 54 -19 10 -17
-20 -31 -32 -31 -29 0 22 28 81 43 93 10 7 16 19 13 26 -7 19 30 48 54 42 11
-3 20 -2 20 2 0 4 15 8 33 8 17 0 91 7 162 16 72 9 217 17 323 19 105 1 192 5
192 10 0 4 11 10 25 14 14 3 25 10 25 14 0 4 16 11 35 14 32 6 50 26 23 26 -9
0 -9 3 -1 11 6 6 9 19 6 28 -4 14 -3 14 6 1 9 -13 14 -13 38 2 16 10 29 26 29
39 1 12 9 28 18 34 8 7 13 15 9 19 -4 4 -2 11 5 15 14 9 20 31 33 116 9 65 13
2261 3 2276 -3 5 -2 13 1 19 6 9 8 1077 5 2081 -1 361 -3 432 -20 528 -10 62
-17 118 -13 126 6 19 -45 100 -89 141 -141 130 -259 165 -603 179 -190 7 -241
20 -320 82 -62 49 -97 109 -98 172 -1 66 12 144 25 152 10 6 8 9 -5 9 -16 0
-18 6 -13 43 3 23 5 43 5 45 1 1 8 2 16 2 8 0 15 7 15 16 0 10 6 13 19 9 13
-4 20 0 24 14 8 33 137 40 187 9 10 -6 26 -6 45 2 l30 11 -25 19 c-14 11 -38
20 -55 20 -43 2 -98 9 -103 15 -20 20 137 46 268 45 150 -1 162 -3 200 -30 27
-19 31 -27 26 -51 -4 -22 0 -32 22 -50 25 -20 35 -21 130 -16 56 3 108 9 115
14 6 5 31 15 55 23 23 7 47 19 53 27 6 7 16 13 21 13 21 0 117 73 180 137 76
78 106 115 214 268 42 61 98 135 123 164 47 56 73 109 73 148 0 24 7 27 85 31
46 2 59 -2 100 -31z m-2246 -4 c-12 -20 -14 -14 -5 12 4 9 9 14 11 11 3 -2 0
-13 -6 -23z m7316 21 c-3 -3 -12 -4 -19 -1 -8 3 -5 6 6 6 11 1 17 -2 13 -5z
m-7587 -29 c-8 -10 -7 -14 2 -18 7 -2 10 -8 5 -12 -4 -5 -12 -4 -17 1 -12 12
-1 56 12 48 5 -3 5 -11 -2 -19z m87 -11 c-3 -3 -12 -4 -19 -1 -8 3 -5 6 6 6
11 1 17 -2 13 -5z m5855 -36 c6 -17 -3 -58 -11 -58 -4 0 -7 16 -7 35 1 34 11
46 18 23z m-5649 -367 c-4 -18 -11 -21 -29 -17 -24 6 -34 -9 -11 -17 7 -2 6
-3 -3 -3 -9 1 -16 13 -18 30 -3 27 -2 28 27 23 20 -4 31 -3 31 5 0 6 2 9 5 7
2 -3 2 -15 -2 -28z m1 -111 c-6 -33 -9 -39 -16 -25 -7 11 -6 27 2 46 17 40 22
31 14 -21z m7351 -80 c3 -5 1 -10 -4 -10 -6 0 -11 5 -11 10 0 6 2 10 4 10 3 0
8 -4 11 -10z m17 -152 l-5 -31 -14 26 c-11 22 -11 30 -1 41 17 18 26 3 20 -36z
m-7502 -119 c0 -5 -4 -9 -10 -9 -5 0 -10 7 -10 16 0 8 5 12 10 9 6 -3 10 -10
10 -16z m-9 -49 c6 0 9 -12 7 -27 -2 -20 -8 -27 -20 -25 -11 2 -18 -4 -19 -15
-1 -12 -3 -10 -8 7 -10 37 -2 72 16 66 8 -3 19 -6 24 -6z m1594 -650 c3 -5 -1
-10 -9 -10 -9 0 -16 5 -16 10 0 6 4 10 9 10 6 0 13 -4 16 -10z m45 -41 c0 -5
-4 -9 -10 -9 -5 0 -10 7 -10 16 0 8 5 12 10 9 6 -3 10 -10 10 -16z m5887 -71
c-3 -8 -6 -5 -6 6 -1 11 2 17 5 13 3 -3 4 -12 1 -19z m0 -80 c-3 -8 -6 -5 -6
6 -1 11 2 17 5 13 3 -3 4 -12 1 -19z m-7577 -533 c0 -8 -4 -15 -10 -15 -5 0
-7 7 -4 15 4 8 8 15 10 15 2 0 4 -7 4 -15z m-10 -236 c0 -11 -4 -18 -10 -14
-5 3 -7 12 -3 20 7 21 13 19 13 -6z m70 -186 c0 -30 -3 -44 -10 -37 -8 8 -3
84 6 84 2 0 4 -21 4 -47z m-3 -95 c-3 -8 -6 -5 -6 6 -1 11 2 17 5 13 3 -3 4
-12 1 -19z m-125 -480 c-8 -8 -9 -4 -5 13 4 13 8 18 11 10 2 -7 -1 -18 -6 -23z
m3 -105 c-1 -10 3 -24 9 -32 9 -11 8 -13 -4 -9 -17 5 -27 58 -12 58 6 0 9 -8
7 -17z m93 -20 c-9 -10 -18 -25 -21 -33 -3 -8 -6 -3 -6 13 -1 18 4 27 14 27 8
0 15 5 15 12 0 6 3 8 7 5 3 -4 -1 -15 -9 -24z m7599 -215 c-3 -7 -5 -2 -5 12
0 14 2 19 5 13 2 -7 2 -19 0 -25z m-7639 -30 c14 -14 16 -28 2 -28 -5 0 -14 9
-20 20 -12 22 -1 27 18 8z m5882 -758 c0 -5 -4 -10 -10 -10 -5 0 -10 5 -10 10
0 6 5 10 10 10 6 0 10 -4 10 -10z m-10 -70 c0 -5 -4 -10 -10 -10 -5 0 -10 5
-10 10 0 6 5 10 10 10 6 0 10 -4 10 -10z m0 -61 c0 -6 -4 -7 -10 -4 -5 3 -10
11 -10 16 0 6 5 7 10 4 6 -3 10 -11 10 -16z m20 -169 c0 -9 -4 -20 -9 -25 -5
-6 -11 -28 -14 -50 -2 -22 -4 -2 -5 45 -1 77 0 83 13 66 8 -11 15 -27 15 -36z
m1728 -32 c-2 -12 -8 -23 -14 -25 -7 -2 -10 6 -7 22 6 30 26 34 21 3z m9 -100
c-3 -7 -5 -2 -5 12 0 14 2 19 5 13 2 -7 2 -19 0 -25z m-1744 -21 c3 -8 -1 -14
-9 -14 -8 0 -14 6 -14 14 0 7 4 13 9 13 5 0 11 -6 14 -13z m-3 -37 c0 -5 -2
-10 -4 -10 -3 0 -8 5 -11 10 -3 6 -1 10 4 10 6 0 11 -4 11 -10z m8 -60 c12
-25 11 -32 -2 -45 -18 -18 -23 -11 -24 38 -2 45 8 48 26 7z m2 -76 c0 -3 -7
-12 -15 -20 -12 -13 -15 -13 -15 -1 0 7 3 17 7 20 8 8 23 9 23 1z m-5970 -24
c0 -5 -4 -10 -10 -10 -5 0 -10 5 -10 10 0 6 5 10 10 10 6 0 10 -4 10 -10z
m2670 1 c0 -6 -4 -13 -10 -16 -5 -3 -10 1 -10 9 0 9 5 16 10 16 6 0 10 -4 10
-9z m3290 -56 c0 -14 -4 -25 -10 -25 -5 0 -10 11 -10 25 0 14 5 25 10 25 6 0
10 -11 10 -25z m13 -45 c-8 -17 -19 -30 -24 -30 -6 0 -7 6 -2 13 4 6 8 14 9
17 4 19 17 39 24 35 5 -3 2 -19 -7 -35z m22 -30 c3 -5 1 -10 -4 -10 -6 0 -11
5 -11 10 0 6 2 10 4 10 3 0 8 -4 11 -10z m-30 -20 c3 -5 1 -10 -4 -10 -15 0
-14 -53 2 -69 10 -11 9 -13 -3 -9 -10 3 -16 20 -18 51 -3 44 8 61 23 37z
m-3295 -60 c0 -5 -5 -10 -11 -10 -5 0 -7 5 -4 10 3 6 8 10 11 10 2 0 4 -4 4
-10z m3308 -110 c6 -31 4 -53 -5 -70 -12 -24 -12 -23 -12 20 0 25 -2 60 -4 78
-5 47 11 25 21 -28z m1832 -231 c0 -5 -7 -9 -15 -9 -15 0 -20 12 -9 23 8 8 24
-1 24 -14z m-10 -160 c0 -4 -6 -9 -13 -12 -8 -3 -14 0 -14 6 0 7 -3 23 -7 37
l-7 25 20 -25 c11 -14 21 -28 21 -31z m-53 -341 c-3 -8 -6 -5 -6 6 -1 11 2 17
5 13 3 -3 4 -12 1 -19z m8 -88 c3 -5 -3 -10 -14 -10 -12 0 -21 5 -21 10 0 6 6
10 14 10 8 0 18 -4 21 -10z m-179 -1412 c-9 -5 -21 -6 -26 -3 -6 3 -10 1 -10
-4 0 -6 -11 -11 -25 -11 -14 0 -25 5 -25 11 0 6 7 9 15 6 8 -4 17 -3 19 2 3 4
19 8 36 8 24 0 28 -3 16 -9z m-102 -54 c4 -11 2 -15 -8 -11 -8 3 -17 1 -19 -6
-2 -7 -8 -9 -12 -4 -6 5 18 34 31 37 1 0 5 -7 8 -16z m126 -41 c0 -9 -8 -9
-30 -2 -38 14 -38 16 0 15 16 -1 30 -6 30 -13z m-55 -24 c-3 -3 -21 -10 -40
-13 -20 -4 -33 -11 -30 -16 3 -6 -1 -7 -10 -4 -12 5 -13 10 -4 20 6 8 15 11
20 8 5 -3 9 -1 9 4 0 5 13 9 30 9 16 0 27 -4 25 -8z m-7325 -74 c0 -8 -2 -15
-4 -15 -2 0 -6 7 -10 15 -3 8 -1 15 4 15 6 0 10 -7 10 -15z m-210 -41 c0 -8
-4 -12 -10 -9 -5 3 -10 10 -10 16 0 5 5 9 10 9 6 0 10 -7 10 -16z m176 -51
c-10 -26 -18 -8 -9 23 5 21 8 24 11 11 2 -10 1 -25 -2 -34z m4578 -27 c-3 -9
1 -13 12 -13 9 1 19 -3 21 -9 2 -7 -6 -11 -21 -10 -13 0 -23 3 -21 5 3 2 0 12
-6 22 -7 15 -6 19 5 19 9 0 13 -6 10 -14z m1236 4 c0 -5 -4 -10 -10 -10 -5 0
-10 5 -10 10 0 6 5 10 10 10 6 0 10 -4 10 -10z m-5988 -40 c3 -17 1 -33 -4
-36 -4 -3 -8 11 -8 30 0 44 6 47 12 6z m1779 20 c10 -6 19 -15 19 -20 0 -15
-54 -12 -86 5 -27 14 -27 15 -6 15 12 0 22 -6 22 -12 0 -7 5 -5 11 5 12 20 14
20 40 7z m1174 2 c262 1 477 0 485 -2 3 -1 47 -1 98 0 110 1 117 -14 12 -25
-38 -4 -70 -10 -70 -14 0 -4 -7 -8 -15 -8 -8 0 -12 4 -9 9 5 7 -74 2 -103 -8
-7 -2 -13 3 -13 10 0 20 -40 27 -61 12 -11 -7 -16 -16 -12 -19 3 -4 -2 -7 -12
-7 -10 0 -27 -7 -37 -17 -17 -15 -18 -15 -18 5 0 14 6 22 17 22 12 0 14 3 7
10 -12 12 -44 3 -44 -11 0 -5 -30 -7 -67 -5 -38 2 -59 1 -49 -3 14 -5 16 -10
8 -15 -7 -4 -10 -12 -7 -17 4 -5 2 -9 -4 -9 -5 0 -12 6 -14 13 -4 9 -7 9 -15
-1 -5 -7 -16 -10 -25 -6 -22 8 -22 24 1 25 11 0 12 2 4 6 -7 3 -18 0 -25 -6
-9 -7 -16 -5 -25 9 -15 24 -88 26 -96 3 -3 -8 -10 -12 -15 -9 -5 4 -11 0 -14
-6 -3 -9 -10 -7 -21 7 -8 11 -16 16 -16 11 0 -5 -6 -3 -14 3 -11 10 -20 10
-38 0 -13 -7 -24 -12 -26 -11 -1 2 -13 0 -27 -4 -25 -6 -29 -14 -25 -44 1 -10
-6 -6 -19 9 -12 14 -27 21 -36 17 -8 -3 -15 0 -15 5 0 7 -11 9 -25 7 -14 -3
-25 -1 -25 4 0 5 -9 6 -20 3 -13 -4 -20 -2 -20 6 0 7 -3 9 -6 6 -4 -4 -1 -14
7 -24 9 -11 10 -14 2 -9 -8 4 -13 1 -13 -9 0 -26 -17 -8 -23 25 -5 24 -11 29
-29 27 -13 -1 -25 -5 -28 -8 -3 -4 -16 -9 -30 -13 -18 -5 -21 -5 -10 3 12 8
10 12 -10 19 -29 11 -41 5 -20 -9 11 -7 6 -9 -20 -9 -62 0 -80 -4 -80 -17 0
-7 5 -13 10 -13 6 0 10 -5 10 -10 0 -7 -6 -7 -20 0 -17 9 -20 8 -20 -10 0 -11
-3 -19 -7 -18 -5 2 -19 -5 -33 -15 -18 -12 -20 -17 -8 -17 18 0 33 -33 23 -49
-3 -5 -1 -12 5 -16 22 -14 10 -35 -21 -35 -20 0 -28 -4 -23 -11 4 -7 1 -10 -7
-7 -8 3 -15 21 -17 44 -2 21 -10 45 -19 51 -9 7 -14 16 -10 19 4 4 2 13 -5 21
-16 20 5 41 26 24 11 -9 20 -6 47 20 19 18 29 33 23 36 -9 3 -9 10 0 28 11 24
11 24 170 24 87 0 160 1 161 3 2 2 41 2 87 1 46 -1 196 -2 333 -1z m765 -2
c-8 -5 -19 -10 -25 -10 -5 0 -3 5 5 10 8 5 20 10 25 10 6 0 3 -5 -5 -10z m543
3 c-7 -2 -19 -2 -25 0 -7 3 -2 5 12 5 14 0 19 -2 13 -5z m3234 1 c-3 -3 -12
-4 -19 -1 -8 3 -5 6 6 6 11 1 17 -2 13 -5z m-6320 -10 c-3 -3 -12 -4 -19 -1
-8 3 -5 6 6 6 11 1 17 -2 13 -5z m273 2 c0 -3 -4 -8 -10 -11 -5 -3 -10 -1 -10
4 0 6 5 11 10 11 6 0 10 -2 10 -4z m490 -9 c0 -9 -9 -13 -25 -12 -37 5 -67 -6
-61 -21 3 -7 0 -15 -7 -18 -7 -3 -3 -4 8 -3 11 1 25 9 32 17 11 13 12 12 13
-7 0 -16 6 -23 20 -23 11 0 20 -6 20 -14 0 -11 6 -11 34 2 19 9 32 20 29 25
-4 6 -1 7 7 2 8 -5 24 -9 37 -10 36 -1 43 -17 46 -100 l2 -79 -57 -3 c-40 -1
-58 2 -58 10 0 7 -4 6 -10 -3 -9 -13 -11 -13 -20 0 -8 12 -10 12 -8 -5 4 -51
-1 -64 -26 -61 -32 3 -54 22 -58 48 -2 14 -11 22 -25 23 -13 1 -23 -2 -23 -7
0 -5 -5 -6 -11 -3 -7 5 -3 14 10 27 25 22 21 32 -20 53 -35 18 -36 31 -7 62
17 18 19 26 10 35 -7 7 -12 18 -12 25 0 11 5 11 20 3 11 -6 18 -15 15 -21 -4
-5 -2 -9 3 -9 18 0 24 34 8 46 -30 21 -21 25 77 32 26 2 37 -2 37 -11z m50 -7
c0 -13 -7 -20 -20 -20 -13 0 -20 7 -20 20 0 13 7 20 20 20 13 0 20 -7 20 -20z
m198 1 c-7 -11 -16 -17 -22 -14 -5 3 -15 -2 -23 -12 -7 -11 -13 -14 -13 -8 0
6 -7 14 -16 17 -9 4 -13 2 -8 -5 4 -8 1 -8 -12 -1 -11 5 -25 8 -32 6 -7 -1 -8
0 -3 2 6 3 7 12 4 20 -4 11 8 14 66 14 68 0 71 -1 59 -19z m2670 -2 c-20 -13
-28 -11 -22 5 3 8 12 12 21 9 12 -5 12 -7 1 -14z m-4138 -4 c7 -8 8 -15 2 -15
-5 0 -15 7 -22 15 -7 8 -8 15 -2 15 5 0 15 -7 22 -15z m1050 -26 c0 -4 -5 -11
-10 -14 -6 -4 -8 -11 -5 -16 11 -16 -7 -9 -21 9 -11 15 -12 12 -4 -17 5 -19 7
-37 5 -40 -9 -8 -17 7 -22 46 -5 37 -4 38 26 39 17 1 31 -2 31 -7z m4630 7 c0
-11 -19 -15 -25 -6 -3 5 1 10 9 10 9 0 16 -2 16 -4z m-4746 -26 c-1 -8 -3 -18
-3 -22 -2 -14 -17 -8 -45 15 l-26 23 39 -1 c29 0 38 -4 35 -15z m1664 3 c-1
-10 2 -28 6 -40 6 -20 4 -21 -21 -14 -20 6 -27 13 -25 27 3 14 1 16 -8 8 -12
-12 -4 -64 11 -64 5 0 9 5 9 11 0 8 5 7 15 -1 9 -8 12 -17 7 -22 -11 -11 -3
-58 9 -58 5 0 9 -7 9 -15 0 -18 19 -20 21 -2 1 6 1 24 1 40 -1 34 8 34 38 2
13 -14 31 -25 39 -25 11 0 12 -3 4 -8 -6 -4 6 -8 28 -8 40 -1 46 7 40 54 -2
15 65 17 74 2 4 -6 11 -8 16 -5 5 4 24 -5 42 -19 19 -15 41 -26 49 -26 9 0 18
-6 21 -14 3 -7 26 -17 50 -20 28 -4 55 -16 70 -32 23 -23 26 -23 41 -9 9 9 16
19 16 23 0 13 50 31 56 20 4 -7 10 -4 16 6 8 14 38 23 38 12 0 -2 3 -12 6 -20
5 -12 2 -15 -10 -10 -9 3 -16 1 -16 -5 0 -8 -11 -10 -34 -6 -22 5 -36 3 -41
-6 -6 -9 -3 -11 8 -6 9 3 19 1 23 -4 3 -6 17 -8 30 -5 14 4 24 2 24 -4 0 -6
12 -15 26 -21 26 -9 26 -10 8 -23 -10 -8 -21 -11 -24 -6 -3 4 -63 9 -134 11
-92 3 -131 8 -134 17 -2 6 -8 9 -14 6 -6 -4 -14 0 -19 7 -6 10 -11 11 -16 3
-10 -12 -874 -20 -872 -7 4 25 -3 35 -12 14 -6 -16 -14 -21 -26 -17 -9 4 -20
1 -25 -6 -6 -10 -12 -9 -23 6 -8 10 -21 16 -29 13 -19 -8 -10 22 12 41 22 17
32 15 26 -5 -5 -15 -4 -15 4 -4 9 12 13 12 26 2 13 -11 18 -10 30 2 9 8 11 18
6 23 -5 5 -5 15 0 24 7 11 10 11 10 2 0 -7 5 -10 11 -6 6 3 9 19 5 35 -6 30
10 41 20 15 5 -12 10 -12 38 -1 19 8 35 13 37 11 2 -2 13 5 23 15 19 18 19 19
-5 28 -13 5 -18 10 -11 10 7 1 12 8 10 17 -2 10 2 19 7 21 6 2 11 -9 10 -24 0
-24 5 -29 29 -31 23 -3 28 0 23 12 -8 20 3 20 28 3 20 -16 12 -39 -10 -30 -9
3 -22 0 -30 -7 -8 -6 -20 -8 -26 -4 -9 5 -10 2 -6 -9 4 -10 2 -16 -5 -14 -6 1
-12 -3 -15 -9 -2 -7 6 -10 21 -9 44 5 94 25 100 40 3 8 11 15 18 14 10 0 10
-2 1 -6 -7 -2 -13 -9 -13 -14 0 -4 7 -6 15 -3 18 7 21 -21 3 -32 -7 -5 -5 -12
8 -22 18 -13 18 -14 -8 -10 -18 4 -25 1 -21 -8 3 -10 18 -8 64 9 57 20 58 21
39 39 -10 10 -26 15 -35 12 -11 -5 -14 -2 -9 10 7 19 51 18 59 -2 3 -7 9 -11
14 -7 6 3 7 13 4 22 -4 11 -3 14 5 9 15 -9 45 20 47 45 2 24 35 58 57 58 10 1
16 -6 16 -16z m-2023 -15 c-4 -33 -6 -35 -14 -13 -7 16 1 33 15 35 1 0 0 -10
-1 -22z m1895 18 c0 -2 -11 -6 -25 -8 -14 -3 -25 -1 -25 3 0 5 11 9 25 9 14 0
25 -2 25 -4z m-3161 -24 c7 -14 6 -25 -5 -40 -8 -12 -14 -22 -12 -23 2 0 29
-1 60 -2 33 0 53 -4 45 -9 -8 -5 -7 -8 6 -8 10 0 15 -5 12 -10 -4 -6 -15 -8
-26 -5 -15 5 -17 3 -12 -11 4 -11 3 -15 -5 -10 -6 3 -13 2 -17 -4 -9 -15 -25
-12 -25 5 0 8 -5 15 -11 15 -7 0 -9 -10 -5 -25 6 -24 5 -25 -14 -13 -17 11
-20 23 -20 85 0 72 10 91 29 55z m2810 3 c12 -4 21 -2 21 4 0 6 11 11 25 11
14 0 25 -5 25 -11 0 -6 -9 -8 -20 -4 -15 5 -20 2 -20 -14 0 -11 5 -23 10 -26
6 -3 10 -11 10 -16 0 -5 -15 -2 -32 8 -18 10 -37 18 -43 18 -5 0 -16 4 -23 9
-7 4 -19 2 -27 -4 -9 -8 -15 -8 -15 -2 0 6 -2 17 -5 24 -4 11 4 14 33 12 22
-1 49 -5 61 -9z m607 -57 c-5 -4 -15 -4 -21 0 -5 4 -19 5 -30 4 -18 -2 -19 -2
-2 8 9 6 17 23 17 37 0 26 0 26 23 -8 15 -21 20 -37 13 -41z m-3302 41 c-8
-13 -21 -11 -27 5 -4 10 0 12 14 9 10 -3 16 -9 13 -14z m4369 14 c-7 -2 -19
-2 -25 0 -7 3 -2 5 12 5 14 0 19 -2 13 -5z m-3499 -18 c3 -8 1 -15 -4 -15 -6
0 -10 5 -10 11 0 6 -9 8 -20 4 -11 -4 -20 -2 -20 4 0 17 47 13 54 -4z m1620
-11 c4 -12 2 -12 -14 -4 -11 6 -20 15 -20 20 0 14 28 1 34 -16z m476 16 c0 -5
-4 -10 -10 -10 -5 0 -10 5 -10 10 0 6 5 10 10 10 6 0 10 -4 10 -10z m1327 4
c-3 -3 -12 -4 -19 -1 -8 3 -5 6 6 6 11 1 17 -2 13 -5z m-2097 -24 c-7 -5 -9
-14 -5 -21 6 -10 5 -11 -4 -3 -14 12 -4 47 11 38 6 -4 6 -9 -2 -14z m1377 5
c0 -8 -4 -12 -9 -9 -5 3 -6 10 -3 15 9 13 12 11 12 -6z m-2025 -7 c-9 -9 -15
-9 -24 0 -9 9 -7 12 12 12 19 0 21 -3 12 -12z m-613 -43 c1 -5 -6 -2 -15 7
-10 9 -13 21 -8 29 5 9 9 8 15 -7 4 -10 8 -23 8 -29z m229 33 c-6 -18 -28 -21
-28 -4 0 9 7 16 16 16 9 0 14 -5 12 -12z m2487 2 c-3 -5 -12 -10 -18 -10 -7 0
-6 4 3 10 19 12 23 12 15 0z m-1099 -25 c25 -23 29 -24 44 -10 16 14 17 14 13
-8 -3 -14 -12 -23 -25 -24 -11 -1 -28 -9 -38 -18 -16 -15 -18 -14 -24 0 -3 9
-4 21 -1 26 3 5 1 17 -4 27 -9 16 -6 32 5 32 2 0 15 -11 30 -25z m24 21 c0
-11 -19 -15 -25 -6 -3 5 1 10 9 10 9 0 16 -2 16 -4z m-1870 -10 c0 -3 -4 -8
-10 -11 -5 -3 -10 -1 -10 4 0 6 5 11 10 11 6 0 10 -2 10 -4z m32 -27 c-4 -26
-6 -29 -14 -15 -10 18 -4 46 10 46 5 0 6 -14 4 -31z m1972 22 c4 -5 -3 -7 -14
-4 -23 6 -26 13 -6 13 8 0 17 -4 20 -9z m3946 -6 c0 -8 -2 -15 -4 -15 -2 0 -6
7 -10 15 -3 8 -1 15 4 15 6 0 10 -7 10 -15z m-3391 -7 c11 -10 13 -10 7 0 -8
14 -5 15 18 6 21 -8 21 -24 0 -24 -8 0 -12 -4 -9 -10 14 -22 -14 -8 -29 15
-17 26 -9 34 13 13z m3461 -3 c-7 -8 -17 -12 -23 -8 -6 4 -3 9 9 14 27 11 28
11 14 -6z m-4570 -4 c0 -5 -7 -11 -15 -15 -15 -5 -20 5 -8 17 9 10 23 9 23 -2z
m70 -22 c0 -16 5 -18 28 -13 15 4 30 12 34 18 5 7 8 4 8 -6 0 -22 16 -24 24
-3 3 9 18 15 37 15 24 0 30 -4 25 -15 -15 -37 -18 -50 -9 -37 5 7 17 10 26 6
13 -4 16 -2 12 9 -4 9 1 16 14 20 26 6 37 -9 21 -28 -11 -13 -8 -14 19 -9 28
6 31 4 31 -19 0 -14 7 -28 17 -31 12 -5 14 -9 5 -18 -9 -9 -15 -9 -24 0 -7 7
-20 12 -31 12 -20 0 -47 22 -47 39 0 6 -4 11 -10 11 -5 0 -10 -4 -10 -10 0 -9
-33 -7 -82 5 -16 4 -26 11 -23 15 3 5 1 12 -5 15 -6 4 -10 3 -9 -2 4 -18 -13
-41 -27 -36 -8 3 -14 0 -14 -6 0 -6 5 -11 10 -11 6 0 10 -7 10 -15 0 -17 -17
-20 -22 -4 -2 5 -11 7 -21 3 -12 -4 -16 -13 -12 -25 6 -17 1 -19 -39 -19 -25
0 -46 4 -46 10 0 5 7 7 15 4 11 -5 15 1 15 20 0 18 -5 26 -17 26 -14 0 -13 3
6 21 13 12 29 18 39 15 15 -5 15 -5 -1 8 -20 15 -13 46 10 46 8 0 12 4 9 9 -4
5 3 7 14 4 11 -3 20 -14 20 -24z m4280 21 c0 -5 -5 -10 -11 -10 -5 0 -7 5 -4
10 3 6 8 10 11 10 2 0 4 -4 4 -10z m-3645 -10 c-3 -5 -10 -10 -16 -10 -5 0 -9
5 -9 10 0 6 7 10 16 10 8 0 12 -4 9 -10z m1245 0 c0 -5 -2 -10 -4 -10 -3 0 -8
5 -11 10 -3 6 -1 10 4 10 6 0 11 -4 11 -10z m-3165 -18 c-3 -3 -11 0 -18 7 -9
10 -8 11 6 5 10 -3 15 -9 12 -12z m1195 -8 c0 -2 -9 -4 -21 -4 -11 0 -18 4
-14 10 5 8 35 3 35 -6z m360 12 c0 -3 -4 -8 -10 -11 -5 -3 -10 -1 -10 4 0 6 5
11 10 11 6 0 10 -2 10 -4z m165 -6 c4 -6 -5 -10 -20 -10 -15 0 -24 4 -20 10 3
6 12 10 20 10 8 0 17 -4 20 -10z m4075 0 c0 -5 -4 -10 -10 -10 -5 0 -10 5 -10
10 0 6 5 10 10 10 6 0 10 -4 10 -10z m-3404 -12 c-12 -7 -21 -7 -28 0 -6 6 0
10 18 10 23 0 24 -2 10 -10z m1004 -3 c11 -13 8 -15 -14 -15 -16 0 -26 5 -26
15 0 8 6 15 14 15 7 0 19 -7 26 -15z m160 5 c0 -5 -5 -10 -11 -10 -5 0 -7 5
-4 10 3 6 8 10 11 10 2 0 4 -4 4 -10z m-1905 -10 c-3 -5 -11 -10 -16 -10 -6 0
-7 5 -4 10 3 6 11 10 16 10 6 0 7 -4 4 -10z m34 -40 c0 -10 -3 -8 -9 5 -12 27
-12 43 0 25 5 -8 9 -22 9 -30z m1846 30 c3 -5 1 -10 -4 -10 -6 0 -11 5 -11 10
0 6 2 10 4 10 3 0 8 -4 11 -10z m-541 -10 c-7 -7 -19 -7 -35 -1 -23 9 -22 10
11 10 23 1 31 -2 24 -9z m166 0 c0 -5 -2 -10 -4 -10 -3 0 -8 5 -11 10 -3 6 -1
10 4 10 6 0 11 -4 11 -10z m2687 -20 c-1 -16 -6 -30 -10 -30 -5 0 -5 -5 -1
-12 4 -6 3 -8 -4 -4 -7 4 -8 17 -2 35 4 16 6 32 2 35 -3 3 0 6 6 6 6 0 10 -13
9 -30z m-2517 0 c0 -5 -11 -10 -25 -10 -14 0 -25 5 -25 10 0 6 11 10 25 10 14
0 25 -4 25 -10z m-169 -15 c-1 -15 -24 -12 -29 3 -3 9 2 13 12 10 10 -1 17 -7
17 -13z m-2248 -10 c4 -8 2 -17 -2 -20 -5 -2 -11 4 -14 15 -6 23 8 27 16 5z
m114 -21 c2 -13 1 -15 -4 -4 -3 8 -11 19 -17 23 -7 6 -6 7 4 4 8 -2 16 -12 17
-23z m-45 -13 c3 -21 1 -28 -9 -24 -7 3 -11 9 -8 13 3 5 0 12 -6 16 -8 4 -7 9
2 15 8 5 15 9 15 9 1 0 4 -13 6 -29z m4728 -11 c0 -5 -5 -10 -11 -10 -5 0 -7
5 -4 10 3 6 8 10 11 10 2 0 4 -4 4 -10z m378 -5 c-11 -11 -58 -15 -58 -5 0 5
14 10 32 10 17 0 29 -2 26 -5z m-238 -25 c0 -5 -2 -10 -4 -10 -3 0 -8 5 -11
10 -3 6 -1 10 4 10 6 0 11 -4 11 -10z m40 0 c0 -5 -4 -10 -10 -10 -5 0 -10 5
-10 10 0 6 5 10 10 10 6 0 10 -4 10 -10z m-5450 -16 c0 -8 -4 -12 -10 -9 -5 3
-10 10 -10 16 0 5 5 9 10 9 6 0 10 -7 10 -16z m1450 -5 c0 -5 4 -8 9 -4 5 3
12 1 16 -5 10 -16 -21 -12 -35 5 -9 10 -9 15 -1 15 6 0 11 -5 11 -11z m-2846
-7 c3 -5 -1 -9 -9 -9 -8 0 -15 4 -15 9 0 4 4 8 9 8 6 0 12 -4 15 -8z m6776 -4
c0 -4 -6 -8 -14 -8 -8 0 -17 4 -20 8 -2 4 4 8 15 8 10 0 19 -4 19 -8z m60 2
c0 -5 -2 -10 -4 -10 -3 0 -8 5 -11 10 -3 6 -1 10 4 10 6 0 11 -4 11 -10z m-25
-10 c3 -5 1 -10 -4 -10 -6 0 -11 5 -11 10 0 6 2 10 4 10 3 0 8 -4 11 -10z
m-5298 -6 c-3 -3 -12 -4 -19 -1 -8 3 -5 6 6 6 11 1 17 -2 13 -5z m687 -15 c-6
-11 -24 -2 -24 11 0 5 7 7 15 4 8 -4 12 -10 9 -15z m2701 -9 c3 -5 -1 -10 -9
-10 -9 0 -16 5 -16 10 0 6 4 10 9 10 6 0 13 -4 16 -10z"/>
<path d="M4745 9410 c3 -5 8 -10 11 -10 2 0 4 5 4 10 0 6 -5 10 -11 10 -5 0
-7 -4 -4 -10z"/>
<path d="M1336 9122 c-3 -6 -1 -14 5 -17 14 -9 20 -2 10 14 -6 8 -11 9 -15 3z"/>
<path d="M1320 9076 c0 -8 5 -18 11 -22 7 -4 8 -9 1 -13 -6 -4 -5 -10 3 -18
10 -9 13 -6 13 13 0 13 -4 24 -9 24 -5 0 -6 7 -3 15 4 8 1 15 -5 15 -6 0 -11
-6 -11 -14z"/>
<path d="M6613 8903 c6 -13 13 -20 16 -16 9 13 44 16 36 4 -3 -7 2 -11 14 -11
48 0 13 36 -40 42 -35 4 -36 3 -26 -19z"/>
<path d="M6052 3865 c0 -16 2 -22 5 -12 2 9 2 23 0 30 -3 6 -5 -1 -5 -18z"/>
<path d="M6051 3764 c0 -11 3 -14 6 -6 3 7 2 16 -1 19 -3 4 -6 -2 -5 -13z"/>
<path d="M6051 3664 c0 -11 3 -14 6 -6 3 7 2 16 -1 19 -3 4 -6 -2 -5 -13z"/>
<path d="M6051 3624 c0 -11 3 -14 6 -6 3 7 2 16 -1 19 -3 4 -6 -2 -5 -13z"/>
<path d="M5870 2010 c-12 -16 -19 -30 -16 -30 2 0 14 14 26 30 12 17 19 30 16
30 -2 0 -14 -13 -26 -30z"/>
<path d="M3298 8833 c12 -2 30 -2 40 0 9 3 -1 5 -23 4 -22 0 -30 -2 -17 -4z"/>
<path d="M1820 8156 c0 -2 7 -7 16 -10 8 -3 12 -2 9 4 -6 10 -25 14 -25 6z"/>
<path d="M1733 8117 c-48 -14 -40 -25 15 -22 55 3 92 18 73 29 -7 4 -19 2 -27
-5 -10 -8 -18 -9 -22 -3 -5 7 -18 7 -39 1z"/>
<path d="M1632 8058 c-15 -15 -16 -28 -2 -28 6 0 10 6 10 14 0 8 6 17 13 19 6
3 7 6 2 6 -6 1 -16 -4 -23 -11z"/>
<path d="M3482 7510 c0 -14 2 -19 5 -12 2 6 2 18 0 25 -3 6 -5 1 -5 -13z"/>
<path d="M2080 1889 c-69 -4 -56 -6 74 -7 88 -1 156 1 153 4 -9 9 -121 10
-227 3z"/>
<path d="M1730 1790 c-8 -5 -12 -12 -9 -15 4 -3 12 1 19 10 14 17 11 19 -10 5z"/>
<path d="M3230 930 c0 -5 5 -10 10 -10 6 0 10 5 10 10 0 6 -4 10 -10 10 -5 0
-10 -4 -10 -10z"/>
<path d="M3588 903 c6 -2 18 -2 25 0 6 3 1 5 -13 5 -14 0 -19 -2 -12 -5z"/>
<path d="M2737 843 c-13 -12 -7 -24 11 -21 12 2 16 -3 15 -19 -2 -13 1 -23 6
-23 5 0 11 -9 14 -19 3 -15 11 -18 27 -14 15 4 26 1 32 -11 11 -20 32 -21 25
-1 -4 8 -2 17 3 20 6 4 10 -1 10 -9 0 -9 14 -22 30 -31 32 -16 36 -12 24 30
-9 34 -37 46 -67 30 -16 -8 -29 -10 -32 -4 -4 5 -1 9 6 9 8 0 8 4 -1 15 -8 9
-21 13 -36 9 -21 -5 -24 -3 -24 20 0 19 -5 26 -18 26 -10 0 -22 -3 -25 -7z"/>
<path d="M2820 840 c0 -5 5 -10 11 -10 5 0 7 5 4 10 -3 6 -8 10 -11 10 -2 0
-4 -4 -4 -10z"/>
<path d="M2930 828 c1 -13 7 -34 14 -47 13 -24 14 -24 20 -4 7 22 -11 73 -26
73 -4 0 -8 -10 -8 -22z"/>
<path d="M2855 800 c3 -5 11 -10 16 -10 6 0 7 5 4 10 -3 6 -11 10 -16 10 -6 0
-7 -4 -4 -10z"/>
<path d="M4150 775 c-11 -13 -10 -14 4 -9 9 3 16 10 16 15 0 13 -6 11 -20 -6z"/>
<path d="M4080 711 c0 -5 7 -11 15 -15 8 -3 15 -1 15 3 0 5 -7 11 -15 15 -8 3
-15 1 -15 -3z"/>
<path d="M940 850 c0 -5 5 -10 11 -10 5 0 7 5 4 10 -3 6 -8 10 -11 10 -2 0 -4
-4 -4 -10z"/>
<path d="M4668 9563 c6 -2 18 -2 25 0 6 3 1 5 -13 5 -14 0 -19 -2 -12 -5z"/>
<path d="M4128 9553 c6 -2 18 -2 25 0 6 3 1 5 -13 5 -14 0 -19 -2 -12 -5z"/>
<path d="M4193 9553 c9 -2 23 -2 30 0 6 3 -1 5 -18 5 -16 0 -22 -2 -12 -5z"/>
<path d="M4443 9553 c9 -2 23 -2 30 0 6 3 -1 5 -18 5 -16 0 -22 -2 -12 -5z"/>
<path d="M5100 9550 c0 -5 5 -10 11 -10 5 0 7 5 4 10 -3 6 -8 10 -11 10 -2 0
-4 -4 -4 -10z"/>
<path d="M1358 9543 c7 -3 16 -2 19 1 4 3 -2 6 -13 5 -11 0 -14 -3 -6 -6z"/>
<path d="M4720 9516 c7 -7 14 -6 21 1 9 9 7 12 -9 10 -14 -1 -18 -5 -12 -11z"/>
<path d="M8644 9518 c-3 -4 -12 -4 -22 -1 -14 6 -15 4 -4 -9 15 -18 52 -30 52
-17 0 5 7 9 15 9 18 0 20 -26 3 -33 -10 -4 -10 -6 0 -6 7 -1 21 -8 30 -17 11
-11 17 -13 20 -5 2 6 12 0 24 -14 11 -14 24 -23 29 -20 5 4 9 1 9 -4 0 -6 -4
-11 -9 -11 -5 0 -11 -9 -14 -20 -3 -11 -1 -20 3 -20 4 0 8 -16 8 -35 0 -27 -4
-35 -18 -35 -10 0 -25 -3 -34 -6 -11 -4 -16 0 -16 13 0 30 -10 33 -31 12 -25
-25 -24 -37 9 -73 15 -17 20 -25 11 -18 -14 10 -18 10 -23 -3 -3 -8 -1 -15 4
-15 6 0 10 -11 10 -25 0 -14 -4 -25 -10 -25 -5 0 -10 -6 -10 -14 0 -11 5 -12
25 -3 14 7 23 17 21 22 -2 6 -7 18 -11 28 -4 10 -3 17 4 17 6 0 11 12 12 28 1
25 1 25 11 -7 5 -19 16 -44 24 -55 16 -24 18 -40 4 -31 -5 3 -10 2 -10 -4 0
-5 5 -13 10 -16 6 -3 10 -11 10 -17 0 -6 -10 -3 -22 8 l-23 19 20 -24 c21 -24
25 -46 27 -148 0 -35 4 -63 9 -63 5 0 9 -7 9 -15 0 -8 -4 -15 -8 -15 -5 0 -7
-13 -4 -30 2 -16 8 -30 13 -30 5 0 6 -7 3 -15 -4 -8 -12 -15 -20 -15 -8 0 -14
-4 -14 -10 0 -5 7 -10 16 -10 11 0 14 -6 9 -20 -4 -12 -2 -20 6 -20 9 0 9 -3
-1 -15 -7 -9 -9 -23 -4 -37 4 -13 7 -28 6 -34 -1 -6 4 -11 11 -11 16 0 42 90
32 108 -4 6 -1 15 6 20 11 6 11 11 1 21 -6 6 -12 22 -12 34 0 13 -5 26 -11 30
-6 3 -9 17 -6 30 2 13 -1 25 -7 28 -7 3 -7 5 1 5 8 1 7 10 -5 30 -15 27 -15
31 0 48 13 15 15 31 9 88 -3 39 -5 97 -4 130 4 172 4 236 -2 245 -3 5 -8 26
-11 46 -2 20 -12 43 -22 50 -18 14 -130 15 -138 2z m151 -88 c3 -6 -1 -7 -9
-4 -18 7 -21 14 -7 14 6 0 13 -4 16 -10z m8 -361 c-6 -6 -9 -1 -7 13 3 33 6
36 11 14 3 -10 1 -22 -4 -27z"/>
<path d="M2022 9499 c-33 -13 -27 -17 23 -17 25 0 43 3 40 8 -8 13 -39 17 -63
9z"/>
<path d="M2220 9502 c0 -12 23 -32 37 -32 7 0 13 5 13 10 0 6 -8 10 -17 8 -10
-2 -17 3 -15 10 1 6 -2 12 -8 12 -5 0 -10 -4 -10 -8z"/>
<path d="M8580 9500 c0 -5 5 -10 11 -10 5 0 7 5 4 10 -3 6 -8 10 -11 10 -2 0
-4 -4 -4 -10z"/>
<path d="M1813 9489 c-6 -6 -9 -18 -6 -25 3 -8 0 -14 -6 -14 -6 0 -11 5 -11
11 0 6 -6 9 -12 6 -7 -2 -11 -12 -10 -22 3 -16 2 -17 -12 -6 -9 8 -19 11 -22
8 -10 -10 5 -39 16 -32 5 3 10 0 10 -8 0 -8 7 -18 16 -21 22 -9 24 -8 24 9 0
10 10 15 30 15 20 0 30 5 30 15 0 8 -7 15 -16 15 -10 0 -14 6 -10 15 3 9 -1
15 -11 15 -13 0 -13 3 -3 15 14 17 9 20 -7 4z"/>
<path d="M1880 9473 c0 -27 3 -31 25 -29 14 0 25 2 25 3 0 1 -11 14 -25 29
l-25 27 0 -30z"/>
<path d="M1923 9492 c-9 -6 -7 -12 7 -25 23 -19 34 -22 25 -7 -4 6 -1 17 5 25
10 12 9 15 -6 15 -11 0 -25 -4 -31 -8z"/>
<path d="M2127 9494 c-4 -4 0 -18 8 -31 9 -13 14 -31 13 -41 -3 -17 13 -19 70
-6 21 4 23 2 17 -18 -4 -15 -3 -19 3 -10 5 7 22 14 37 16 17 2 32 11 36 22 7
18 8 18 8 0 1 -16 4 -17 13 -8 17 17 -10 36 -29 20 -8 -7 -13 -7 -13 0 0 5
-16 12 -35 14 -19 2 -35 1 -35 -2 0 -4 -8 -6 -17 -5 -38 3 -62 17 -65 36 -2
12 -6 17 -11 13z"/>
<path d="M3533 9489 c-17 -17 -54 -20 -242 -20 -90 0 -174 -4 -185 -9 -13 -5
-36 -3 -59 5 -20 7 -39 10 -42 6 -10 -9 -145 -7 -145 3 0 5 -7 2 -16 -5 -9 -7
-33 -15 -53 -16 -34 -2 -35 -1 -16 14 19 15 18 15 -12 9 -23 -4 -33 -2 -33 7
0 7 -3 8 -8 2 -4 -5 -23 -10 -42 -10 -23 0 -34 -4 -33 -12 2 -7 -2 -13 -7 -13
-6 0 -10 8 -11 18 0 15 -1 15 -8 -2 -7 -19 -8 -19 -15 0 -8 19 -8 19 -16 -1
-7 -15 -9 -16 -9 -4 -1 12 -8 15 -27 11 -19 -3 -22 -7 -12 -13 9 -6 6 -9 -12
-9 -21 -1 -22 -2 -9 -10 18 -10 342 -15 358 -6 15 10 43 -6 37 -20 -3 -8 0
-15 7 -16 7 0 -8 -4 -33 -7 -42 -6 -71 -1 -127 20 -13 5 -23 5 -23 1 0 -9 -98
-31 -105 -23 -3 3 -15 6 -28 8 -17 3 -19 1 -9 -9 6 -6 12 -18 12 -26 0 -11 -3
-11 -15 2 -8 8 -15 19 -15 25 0 6 -7 8 -15 5 -19 -8 -20 -24 -1 -24 7 0 16 -8
19 -19 3 -14 0 -17 -13 -14 -10 3 -21 0 -24 -6 -5 -7 10 -11 43 -11 31 0 51 4
51 11 0 8 4 8 14 0 8 -7 38 -11 70 -9 44 2 56 6 56 20 0 9 -5 18 -12 20 -7 3
-5 7 6 11 10 4 15 3 11 -3 -3 -6 -1 -10 6 -10 6 0 9 -8 7 -18 -5 -16 4 -18 71
-21 84 -4 120 -4 234 1 45 2 79 -1 81 -7 3 -6 9 -3 15 5 6 9 6 17 0 21 -5 3 2
17 16 31 16 16 22 29 15 33 -5 3 -10 1 -10 -4 0 -6 -3 -10 -7 -10 -22 4 -35
-2 -30 -14 3 -8 1 -20 -4 -28 -7 -12 -9 -12 -9 1 0 11 -3 11 -12 2 -19 -19
-32 -14 -51 17 -21 36 -22 61 -1 61 12 0 15 -6 10 -24 -5 -21 -3 -23 14 -19
11 3 27 15 35 26 13 18 15 19 15 4 0 -9 5 -17 11 -17 6 0 9 7 5 15 -6 18 -29
16 324 20 263 3 361 15 245 30 -32 4 -69 14 -83 23 -18 12 -25 13 -31 3 -7
-11 -26 -11 -81 3 -15 4 -30 2 -37 -5z m-472 -69 c12 0 19 -5 16 -12 -2 -8
-18 -12 -40 -10 -22 2 -37 -1 -37 -7 0 -6 -10 -11 -22 -10 -13 0 -17 3 -10 6
13 5 17 24 5 22 -19 -3 -33 2 -33 11 0 6 15 10 34 10 19 0 38 5 42 11 5 8 10
6 16 -5 5 -9 18 -16 29 -16z m-385 -65 c30 -16 25 -19 -13 -9 -13 4 -23 10
-23 15 0 12 3 11 36 -6z"/>
<path d="M2427 9483 c-4 -3 -7 -11 -7 -17 0 -6 5 -5 12 2 6 6 9 14 7 17 -3 3
-9 2 -12 -2z"/>
<path d="M8557 9475 c3 -8 9 -12 14 -9 12 7 11 11 -5 17 -10 4 -13 1 -9 -8z"/>
<path d="M2810 9470 c0 -5 5 -10 11 -10 5 0 7 5 4 10 -3 6 -8 10 -11 10 -2 0
-4 -4 -4 -10z"/>
<path d="M1985 9454 c21 -16 46 -15 46 1 -1 5 -15 10 -33 11 -30 2 -31 1 -13
-12z"/>
<path d="M2050 9456 c0 -9 7 -12 21 -9 16 4 17 8 7 14 -19 13 -28 11 -28 -5z"/>
<path d="M2467 9463 c-4 -3 -7 -13 -7 -21 0 -18 13 -7 16 13 2 17 1 18 -9 8z"/>
<path d="M3835 9460 c-4 -6 -2 -10 4 -10 6 0 9 -17 7 -39 -4 -49 6 -68 24 -46
8 10 9 15 1 15 -6 0 -11 5 -11 11 0 17 32 38 58 39 12 0 22 4 22 9 0 11 -29
23 -40 16 -5 -3 -20 -1 -34 5 -16 6 -27 6 -31 0z"/>
<path d="M2385 9440 c3 -5 8 -10 11 -10 2 0 4 5 4 10 0 6 -5 10 -11 10 -5 0
-7 -4 -4 -10z"/>
<path d="M8650 9429 c0 -5 11 -9 25 -9 14 0 25 4 25 9 0 5 -11 9 -25 9 -14 0
-25 -4 -25 -9z"/>
<path d="M7885 9420 c4 -6 11 -8 16 -5 14 9 11 15 -7 15 -8 0 -12 -5 -9 -10z"/>
<path d="M1915 9410 c-3 -6 1 -7 9 -4 18 7 21 14 7 14 -6 0 -13 -4 -16 -10z"/>
<path d="M3554 9407 c-10 -18 -71 -30 -79 -16 -7 11 -51 5 -69 -11 -12 -9 -16
-9 -16 -1 0 7 -5 9 -10 6 -21 -13 2 -24 40 -19 30 4 42 1 46 -11 5 -13 9 -13
34 2 24 14 31 14 45 3 23 -19 36 -1 27 35 -7 26 -10 27 -18 12z"/>
<path d="M3670 9407 c0 -12 -6 -14 -27 -8 -32 8 -63 4 -63 -10 0 -5 11 -7 25
-3 20 5 25 2 25 -12 0 -16 2 -17 10 -4 8 12 10 12 10 1 0 -10 9 -12 34 -8 19
3 39 0 45 -6 8 -8 11 -8 11 0 0 6 -7 16 -16 24 -13 10 -17 10 -25 -2 -7 -10
-8 -8 -7 10 2 13 -3 26 -9 28 -7 3 -13 -2 -13 -10z"/>
<path d="M881 9394 c0 -11 3 -14 6 -6 3 7 2 16 -1 19 -3 4 -6 -2 -5 -13z"/>
<path d="M3296 9395 c-3 -8 -1 -15 4 -15 13 0 22 18 11 24 -5 3 -11 -1 -15 -9z"/>
<path d="M3885 9400 c-19 -8 -19 -9 3 -9 12 -1 22 4 22 9 0 6 -1 10 -2 9 -2 0
-12 -4 -23 -9z"/>
<path d="M3975 9400 c3 -5 10 -10 16 -10 5 0 9 5 9 10 0 6 -7 10 -16 10 -8 0
-12 -4 -9 -10z"/>
<path d="M4055 9400 c3 -5 10 -10 16 -10 5 0 9 5 9 10 0 6 -7 10 -16 10 -8 0
-12 -4 -9 -10z"/>
<path d="M7536 9405 c7 -3 10 -15 7 -25 -3 -11 0 -20 6 -20 6 0 11 6 11 14 0
22 15 27 46 16 18 -7 31 -7 37 -1 7 7 3 10 -9 10 -10 0 -39 2 -64 5 -25 4 -40
4 -34 1z"/>
<path d="M7673 9402 c-19 -12 -1 -29 34 -34 40 -5 49 12 15 29 -28 15 -33 15
-49 5z"/>
<path d="M2496 9384 c-18 -17 -21 -28 -7 -19 5 3 13 1 16 -5 4 -6 3 -10 -2 -9
-15 2 -53 -13 -53 -22 0 -10 40 -12 64 -3 8 3 12 12 9 20 -4 10 0 12 11 8 9
-3 16 -1 16 4 0 10 -27 42 -35 42 -2 0 -11 -7 -19 -16z"/>
<path d="M3808 9383 c16 -6 15 -23 -2 -23 -7 0 -16 -9 -19 -20 -3 -11 -1 -20
4 -20 5 0 9 7 9 15 0 8 9 15 20 15 18 0 19 3 10 20 -6 11 -16 20 -23 19 -9 0
-9 -2 1 -6z"/>
<path d="M8710 9380 c0 -13 11 -13 30 0 12 8 11 10 -7 10 -13 0 -23 -4 -23
-10z"/>
<path d="M7955 9370 c3 -5 11 -10 16 -10 6 0 7 5 4 10 -3 6 -11 10 -16 10 -6
0 -7 -4 -4 -10z"/>
<path d="M3593 9363 c4 -3 -1 -12 -11 -19 -16 -13 -16 -13 0 -14 10 0 22 9 28
20 9 16 8 20 -6 20 -10 0 -14 -3 -11 -7z"/>
<path d="M2015 9351 c-2 -5 4 -11 15 -14 11 -3 20 -2 20 3 0 12 -28 21 -35 11z"/>
<path d="M3516 9352 c-3 -5 -1 -14 3 -20 6 -10 10 -10 20 1 9 12 8 16 -3 20
-9 4 -17 3 -20 -1z"/>
<path d="M3262 9334 c-7 -8 -9 -14 -5 -15 4 0 22 -2 40 -3 25 -3 29 -1 20 8
-20 20 -42 24 -55 10z"/>
<path d="M3362 9336 c7 -8 15 -12 17 -11 5 6 -10 25 -20 25 -5 0 -4 -6 3 -14z"/>
<path d="M3620 9340 c0 -5 7 -10 15 -10 8 0 15 5 15 10 0 6 -7 10 -15 10 -8 0
-15 -4 -15 -10z"/>
<path d="M3903 9343 c15 -2 39 -2 55 0 15 2 2 4 -28 4 -30 0 -43 -2 -27 -4z"/>
<path d="M4058 9343 c7 -3 16 -2 19 1 4 3 -2 6 -13 5 -11 0 -14 -3 -6 -6z"/>
<path d="M4110 9340 c-21 -7 -18 -8 18 -9 26 -1 41 3 37 9 -7 11 -19 11 -55 0z"/>
<path d="M1306 9325 c10 -8 23 -15 28 -15 6 0 1 7 -10 15 -10 8 -23 15 -28 15
-6 0 -1 -7 10 -15z"/>
<path d="M2120 9330 c0 -5 6 -10 14 -10 8 0 18 5 21 10 3 6 -3 10 -14 10 -12
0 -21 -4 -21 -10z"/>
<path d="M2375 9330 c-19 -8 -19 -9 3 -9 12 -1 22 4 22 9 0 6 -1 10 -2 9 -2 0
-12 -4 -23 -9z"/>
<path d="M4188 9333 c7 -3 16 -2 19 1 4 3 -2 6 -13 5 -11 0 -14 -3 -6 -6z"/>
<path d="M1356 9321 c-4 -7 -5 -15 -2 -18 9 -9 19 4 14 18 -4 11 -6 11 -12 0z"/>
<path d="M3958 9313 c6 -2 18 -2 25 0 6 3 1 5 -13 5 -14 0 -19 -2 -12 -5z"/>
<path d="M8756 9306 c3 -9 11 -16 16 -16 13 0 5 23 -10 28 -7 2 -10 -2 -6 -12z"/>
<path d="M1205 8800 c-3 -5 -1 -10 4 -10 6 0 11 5 11 10 0 6 -2 10 -4 10 -3 0
-8 -4 -11 -10z"/>
<path d="M8570 8731 c0 -12 5 -21 10 -21 6 0 10 6 10 14 0 8 -4 18 -10 21 -5
3 -10 -3 -10 -14z"/>
<path d="M8562 8639 c4 -43 27 -51 25 -8 -1 18 -8 34 -15 37 -10 3 -13 -5 -10
-29z"/>
<path d="M8788 8559 c-3 -8 -2 -37 3 -62 12 -66 14 -108 5 -134 -4 -14 -3 -23
3 -23 6 0 13 11 17 25 3 14 11 25 16 25 6 0 7 11 4 25 -5 19 -2 25 10 25 12 0
14 5 9 18 -4 9 -7 25 -7 35 0 9 -3 17 -9 17 -5 0 -9 9 -9 20 0 13 -5 17 -14
14 -9 -3 -16 2 -18 13 -3 15 -5 16 -10 2z"/>
<path d="M1035 8480 c-3 -5 -1 -10 4 -10 6 0 11 5 11 10 0 6 -2 10 -4 10 -3 0
-8 -4 -11 -10z"/>
<path d="M8640 8406 c0 -26 7 -41 31 -60 26 -23 30 -30 24 -59 -5 -22 -4 -29
3 -22 23 22 18 125 -7 153 -29 34 -51 28 -51 -12z m60 -40 c0 -3 -4 -8 -10
-11 -5 -3 -10 -1 -10 4 0 6 5 11 10 11 6 0 10 -2 10 -4z"/>
<path d="M8770 8408 c0 -9 5 -20 10 -23 13 -8 13 5 0 25 -8 13 -10 13 -10 -2z"/>
<path d="M8805 8320 c-3 -5 -1 -10 4 -10 6 0 11 5 11 10 0 6 -2 10 -4 10 -3 0
-8 -4 -11 -10z"/>
<path d="M8800 8220 c0 -5 5 -10 11 -10 5 0 7 5 4 10 -3 6 -8 10 -11 10 -2 0
-4 -4 -4 -10z"/>
<path d="M8758 8194 c-3 -2 -3 -16 0 -29 5 -28 22 -24 22 5 0 19 -13 34 -22
24z"/>
<path d="M8807 8104 c6 -15 23 -19 23 -5 0 5 -7 11 -14 14 -10 4 -13 1 -9 -9z"/>
<path d="M8660 8080 c0 -11 4 -20 9 -20 5 0 7 9 4 20 -3 11 -7 20 -9 20 -2 0
-4 -9 -4 -20z"/>
<path d="M8700 8027 c0 -9 -5 -17 -11 -17 -5 0 -7 -5 -4 -10 4 -6 12 -4 22 6
12 11 13 18 4 27 -8 8 -11 7 -11 -6z"/>
<path d="M8725 7678 c2 -18 3 -40 4 -47 1 -10 4 -12 11 -5 6 6 6 23 -1 47 -12
46 -18 47 -14 5z"/>
<path d="M8760 7663 c0 -4 5 -15 10 -23 8 -13 10 -13 10 2 0 9 -4 20 -10 23
-5 3 -10 3 -10 -2z"/>
<path d="M941 7644 c0 -11 3 -14 6 -6 3 7 2 16 -1 19 -3 4 -6 -2 -5 -13z"/>
<path d="M8825 7360 c-3 -5 -1 -10 4 -10 6 0 11 5 11 10 0 6 -2 10 -4 10 -3 0
-8 -4 -11 -10z"/>
<path d="M8690 7309 c0 -5 5 -7 10 -4 6 3 10 8 10 11 0 2 -4 4 -10 4 -5 0 -10
-5 -10 -11z"/>
<path d="M8820 7280 c0 -5 5 -10 10 -10 6 0 10 5 10 10 0 6 -4 10 -10 10 -5 0
-10 -4 -10 -10z"/>
<path d="M8671 6974 c0 -11 3 -14 6 -6 3 7 2 16 -1 19 -3 4 -6 -2 -5 -13z"/>
<path d="M916 6836 c3 -9 11 -16 16 -16 13 0 5 23 -10 28 -7 2 -10 -2 -6 -12z"/>
<path d="M928 6133 c6 -2 12 -14 12 -24 0 -11 -4 -17 -10 -14 -5 3 -10 -1 -10
-9 0 -9 6 -13 14 -10 31 12 29 65 -3 63 -10 0 -11 -2 -3 -6z"/>
<path d="M8667 6013 c-12 -12 -7 -22 8 -17 8 4 15 10 15 15 0 11 -14 12 -23 2z"/>
<path d="M8780 5930 c0 -5 -7 -7 -16 -3 -14 5 -15 3 -6 -14 6 -11 9 -23 6 -26
-3 -3 4 -11 17 -17 20 -11 21 -10 14 6 -5 11 -8 29 -8 42 1 12 -1 22 -3 22 -2
0 -4 -4 -4 -10z"/>
<path d="M8730 5711 c0 -7 -4 -10 -9 -6 -13 7 -21 -8 -26 -50 -5 -33 -4 -34
15 -23 13 9 18 19 14 32 -5 14 -3 18 9 13 12 -4 15 -1 12 15 -5 24 -15 37 -15
19z"/>
<path d="M8774 5695 c-10 -8 -14 -15 -7 -15 19 0 43 11 43 21 0 13 -14 11 -36
-6z"/>
<path d="M8760 5666 c0 -2 7 -7 16 -10 8 -3 12 -2 9 4 -6 10 -25 14 -25 6z"/>
<path d="M8751 5534 c0 -11 3 -14 6 -6 3 7 2 16 -1 19 -3 4 -6 -2 -5 -13z"/>
<path d="M8790 5524 c0 -8 5 -12 10 -9 6 4 8 11 5 16 -9 14 -15 11 -15 -7z"/>
<path d="M8780 5429 c0 -5 5 -7 10 -4 6 3 10 8 10 11 0 2 -4 4 -10 4 -5 0 -10
-5 -10 -11z"/>
<path d="M910 5376 c0 -9 5 -16 10 -16 6 0 10 4 10 9 0 6 -4 13 -10 16 -5 3
-10 -1 -10 -9z"/>
<path d="M8760 5365 c0 -8 6 -15 13 -15 8 0 14 7 14 15 0 8 -6 15 -14 15 -7 0
-13 -7 -13 -15z"/>
<path d="M8762 5318 c-14 -14 -16 -28 -3 -28 5 0 11 9 14 20 6 23 5 24 -11 8z"/>
<path d="M8683 5302 c-8 -5 -7 -11 3 -19 15 -14 27 -3 16 14 -4 7 -13 9 -19 5z"/>
<path d="M8772 5273 c-6 -2 -10 -9 -6 -14 3 -5 -2 -9 -10 -9 -9 0 -16 -7 -16
-15 0 -8 5 -15 10 -15 6 0 10 4 10 10 0 5 6 7 13 5 7 -3 12 4 12 20 0 14 0 25
0 24 0 0 -6 -3 -13 -6z"/>
<path d="M8730 5146 c0 -8 5 -18 10 -21 6 -3 10 1 10 9 0 8 -4 18 -10 21 -5 3
-10 -1 -10 -9z"/>
<path d="M920 5112 c0 -11 4 -23 8 -26 10 -6 9 30 -1 40 -4 4 -7 -2 -7 -14z"/>
<path d="M8780 5109 c0 -5 -4 -8 -9 -5 -4 3 -6 -6 -3 -20 l4 -25 14 27 c17 31
17 34 4 34 -5 0 -10 -5 -10 -11z"/>
<path d="M8727 5086 c-4 -10 -5 -21 -2 -24 9 -9 17 6 13 25 -3 17 -4 17 -11
-1z"/>
<path d="M8790 5063 c0 -25 1 -26 16 -11 9 9 13 21 10 27 -13 20 -26 11 -26
-16z"/>
<path d="M8737 5023 c-9 -18 6 -92 20 -98 9 -3 19 -2 22 1 3 4 0 9 -6 11 -8 3
-13 21 -13 43 0 36 -13 60 -23 43z"/>
<path d="M8720 4909 c0 -5 5 -7 10 -4 6 3 10 8 10 11 0 2 -4 4 -10 4 -5 0 -10
-5 -10 -11z"/>
<path d="M8752 4879 c-8 -11 -9 -18 -3 -14 7 4 11 -7 12 -32 0 -21 4 -47 8
-57 7 -18 8 -18 14 -3 4 10 2 17 -4 17 -6 0 -9 6 -6 13 2 6 1 31 -2 55 -6 40
-7 41 -19 21z"/>
<path d="M8705 4849 c2 -19 4 -43 5 -54 1 -15 3 -16 7 -5 3 8 11 18 17 22 7 5
4 8 -8 8 -16 0 -16 2 -6 16 11 12 11 18 -2 31 -14 14 -16 12 -13 -18z"/>
<path d="M916 4845 c-3 -8 -3 -22 0 -30 4 -9 0 -15 -8 -15 -15 0 -18 -26 -4
-48 13 -22 21 -5 24 52 2 57 -1 68 -12 41z"/>
<path d="M896 4715 c-3 -9 0 -15 9 -15 8 0 15 7 15 15 0 8 -4 15 -9 15 -5 0
-11 -7 -15 -15z"/>
<path d="M8770 4681 c0 -6 4 -13 10 -16 6 -3 7 1 4 9 -7 18 -14 21 -14 7z"/>
<path d="M8770 4620 c0 -5 5 -10 10 -10 6 0 10 5 10 10 0 6 -4 10 -10 10 -5 0
-10 -4 -10 -10z"/>
<path d="M8700 4534 c0 -7 27 -34 34 -34 13 0 5 16 -14 28 -11 7 -20 10 -20 6z"/>
<path d="M907 4484 c-32 -30 -30 -39 8 -30 18 5 25 13 25 31 0 14 -1 25 -3 25
-1 0 -15 -12 -30 -26z"/>
<path d="M8792 4473 c-8 -25 -8 -39 -2 -41 6 -2 8 -8 4 -13 -3 -5 0 -9 5 -9 6
0 11 21 11 50 0 28 -1 50 -3 50 -2 0 -9 -17 -15 -37z"/>
<path d="M8703 4425 c1 -19 5 -35 9 -35 11 0 10 58 -1 64 -5 3 -8 -10 -8 -29z"/>
<path d="M8720 4351 c0 -10 30 -24 37 -17 3 2 -5 9 -16 16 -12 6 -21 7 -21 1z"/>
<path d="M8785 4340 c-4 -6 -3 -16 3 -22 13 -13 23 4 13 21 -7 10 -10 10 -16
1z"/>
<path d="M823 4240 c0 -26 3 -28 16 -17 37 28 40 47 8 47 -20 0 -24 -5 -24
-30z"/>
<path d="M800 4190 c0 -13 26 -19 41 -9 15 10 14 10 -18 14 -13 1 -23 -1 -23
-5z"/>
<path d="M8785 4180 c4 -6 11 -8 16 -5 14 9 11 15 -7 15 -8 0 -12 -5 -9 -10z"/>
<path d="M8737 4079 c7 -7 15 -10 18 -7 3 3 -2 9 -12 12 -14 6 -15 5 -6 -5z"/>
<path d="M8792 4030 c0 -14 2 -19 5 -12 2 6 2 18 0 25 -3 6 -5 1 -5 -13z"/>
<path d="M8730 3990 c0 -5 5 -10 11 -10 5 0 7 5 4 10 -3 6 -8 10 -11 10 -2 0
-4 -4 -4 -10z"/>
<path d="M8770 3964 c0 -8 5 -12 10 -9 6 4 8 11 5 16 -9 14 -15 11 -15 -7z"/>
<path d="M8747 3904 c3 -7 9 -14 14 -14 14 0 10 17 -5 23 -10 4 -13 1 -9 -9z"/>
<path d="M8785 3900 c-8 -13 5 -13 25 0 13 8 13 10 -2 10 -9 0 -20 -4 -23 -10z"/>
<path d="M8730 3889 c0 -28 13 -59 21 -53 14 8 10 40 -6 54 -12 10 -15 10 -15
-1z"/>
<path d="M8770 3830 c0 -5 5 -10 10 -10 6 0 10 5 10 10 0 6 -4 10 -10 10 -5 0
-10 -4 -10 -10z"/>
<path d="M8765 3520 c-3 -5 -1 -10 4 -10 6 0 11 5 11 10 0 6 -2 10 -4 10 -3 0
-8 -4 -11 -10z"/>
<path d="M835 3360 c3 -5 10 -10 16 -10 5 0 9 5 9 10 0 6 -7 10 -16 10 -8 0
-12 -4 -9 -10z"/>
<path d="M873 3303 c-15 -5 -17 -23 -4 -23 5 0 11 7 15 15 3 8 4 15 3 14 -1 0
-8 -3 -14 -6z"/>
<path d="M8730 3230 c0 -5 5 -10 10 -10 6 0 10 5 10 10 0 6 -4 10 -10 10 -5 0
-10 -4 -10 -10z"/>
<path d="M8735 3170 c3 -5 8 -10 11 -10 2 0 4 5 4 10 0 6 -5 10 -11 10 -5 0
-7 -4 -4 -10z"/>
<path d="M8815 3140 c-3 -5 -2 -10 4 -10 5 0 13 5 16 10 3 6 2 10 -4 10 -5 0
-13 -4 -16 -10z"/>
<path d="M8735 2940 c-3 -5 -1 -10 4 -10 6 0 11 5 11 10 0 6 -2 10 -4 10 -3 0
-8 -4 -11 -10z"/>
<path d="M8771 2830 c0 -29 1 -32 10 -17 7 11 7 23 0 35 -9 14 -10 11 -10 -18z"/>
<path d="M8760 2777 c0 -10 41 -49 46 -44 3 3 -4 15 -15 26 -19 19 -31 26 -31
18z"/>
<path d="M8684 2420 c3 -14 6 -31 6 -37 0 -7 5 -13 10 -13 12 0 2 50 -13 65
-6 7 -8 2 -3 -15z"/>
<path d="M935 2299 c-4 -6 -5 -12 -2 -15 2 -3 7 2 10 11 7 17 1 20 -8 4z"/>
<path d="M901 2115 c1 -58 5 -105 10 -105 5 0 9 40 9 89 0 60 4 91 12 93 15 5
1 28 -18 28 -12 0 -15 -18 -13 -105z"/>
<path d="M810 1934 c0 -14 4 -23 10 -19 6 3 10 15 10 26 0 10 -4 19 -10 19 -5
0 -10 -12 -10 -26z"/>
<path d="M907 1933 c-4 -3 -7 -23 -7 -44 0 -29 4 -37 14 -33 17 6 29 44 14 44
-7 0 -6 5 1 13 15 19 -5 38 -22 20z"/>
<path d="M940 1861 c0 -11 5 -23 10 -26 6 -4 10 5 10 19 0 14 -4 26 -10 26 -5
0 -10 -9 -10 -19z"/>
<path d="M1476 885 c-22 -17 -13 -35 14 -28 22 6 24 11 12 30 -5 8 -12 8 -26
-2z"/>
<path d="M6700 879 c0 -5 5 -7 10 -4 6 3 10 8 10 11 0 2 -4 4 -10 4 -5 0 -10
-5 -10 -11z"/>
<path d="M1388 832 c-10 -2 -18 -8 -18 -13 0 -11 11 -11 30 1 18 11 11 18 -12
12z"/>
<path d="M2440 830 c0 -5 5 -10 10 -10 6 0 10 5 10 10 0 6 -4 10 -10 10 -5 0
-10 -4 -10 -10z"/>
<path d="M1450 810 c0 -5 5 -10 10 -10 6 0 10 5 10 10 0 6 -4 10 -10 10 -5 0
-10 -4 -10 -10z"/>
<path d="M2358 804 c-5 -4 -8 -15 -8 -25 0 -10 -7 -24 -15 -33 -17 -16 -5 -29
18 -20 8 3 18 1 22 -5 3 -6 1 -11 -4 -11 -6 0 -11 -5 -11 -11 0 -8 4 -8 15 1
8 6 20 8 26 4 7 -4 9 -3 5 4 -3 6 -2 13 4 17 17 10 11 25 -7 18 -10 -4 -14 -2
-9 5 3 6 14 10 24 10 29 -2 72 12 72 23 0 6 -6 9 -14 6 -7 -3 -17 -2 -22 3
-12 12 -87 23 -96 14z"/>
<path d="M7956 783 c-6 -14 -5 -15 5 -6 7 7 10 15 7 18 -3 3 -9 -2 -12 -12z"/>
<path d="M7880 770 c0 -19 3 -21 12 -12 9 9 9 15 0 24 -9 9 -12 7 -12 -12z"/>
<path d="M2290 760 c0 -5 5 -10 10 -10 6 0 10 5 10 10 0 6 -4 10 -10 10 -5 0
-10 -4 -10 -10z"/>
<path d="M7940 739 c0 -5 5 -7 10 -4 6 3 10 8 10 11 0 2 -4 4 -10 4 -5 0 -10
-5 -10 -11z"/>
<path d="M7730 726 c0 -9 7 -16 16 -16 9 0 14 5 12 12 -6 18 -28 21 -28 4z"/>
<path d="M7525 720 c-3 -5 -2 -10 4 -10 5 0 13 5 16 10 3 6 2 10 -4 10 -5 0
-13 -4 -16 -10z"/>
<path d="M2270 704 c0 -24 19 -54 35 -54 22 0 18 18 -6 25 -15 5 -17 10 -10
19 6 7 8 16 4 19 -11 12 -23 7 -23 -9z"/>
<path d="M2005 670 c-3 -5 1 -10 10 -10 9 0 13 5 10 10 -3 6 -8 10 -10 10 -2
0 -7 -4 -10 -10z"/>
<path d="M2168 673 c-25 -6 -22 -32 5 -42 26 -10 43 -3 29 11 -6 6 -8 17 -5
24 5 14 1 15 -29 7z"/>
<path d="M8332 635 c9 -9 97 -14 103 -6 2 4 -21 9 -53 10 -31 1 -54 -1 -50 -4z"/>
<path d="M8601 631 c-10 -6 -10 -10 -1 -16 7 -4 19 0 28 9 14 13 14 16 2 16
-8 0 -21 -4 -29 -9z"/>
<path d="M1996 622 c-3 -5 1 -9 9 -9 8 0 15 4 15 9 0 4 -4 8 -9 8 -6 0 -12 -4
-15 -8z"/>
<path d="M7023 624 c9 -3 14 -10 11 -16 -4 -7 -2 -8 5 -4 6 4 18 2 26 -4 8 -7
15 -9 15 -6 0 14 -26 31 -50 33 -15 1 -18 0 -7 -3z"/>
<path d="M8633 606 c-15 -12 -34 -21 -40 -19 -7 3 -13 -1 -13 -7 0 -7 -8 -9
-22 -4 -20 6 -21 5 -9 -10 10 -11 17 -13 26 -6 9 7 21 6 41 -5 28 -14 30 -14
51 10 12 14 26 25 31 25 5 0 12 9 15 20 4 17 0 20 -23 20 -16 0 -41 -11 -57
-24z m52 -6 c-3 -5 -10 -10 -16 -10 -5 0 -9 5 -9 10 0 6 7 10 16 10 8 0 12 -4
9 -10z"/>
<path d="M8760 623 c8 -3 20 -12 26 -19 10 -12 12 -11 17 6 4 17 0 20 -26 19
-18 0 -25 -3 -17 -6z"/>
<path d="M6915 600 c11 -5 17 -9 13 -9 -4 -1 -3 -14 2 -31 5 -18 5 -32 -1 -35
-22 -14 -5 -23 44 -22 53 2 69 20 21 24 -27 2 -44 18 -43 38 0 6 3 4 6 -2 2
-7 10 -13 16 -13 7 1 2 9 -10 19 -13 11 -23 24 -23 30 0 6 -10 11 -22 10 -22
0 -22 -1 -3 -9z"/>
<path d="M7465 600 c-4 -6 5 -10 20 -10 15 0 24 4 20 10 -3 6 -12 10 -20 10
-8 0 -17 -4 -20 -10z"/>
<path d="M1954 575 c-9 -19 -9 -27 1 -35 9 -8 15 -8 20 0 3 5 17 10 29 10 24
0 43 35 25 46 -5 3 -9 -1 -9 -9 0 -24 -28 -29 -35 -6 -8 26 -18 24 -31 -6z"/>
<path d="M6734 591 c5 -7 -3 -11 -22 -11 -17 0 -32 -6 -36 -15 -3 -8 -1 -15 4
-15 6 0 10 -8 10 -17 -1 -16 -2 -16 -15 1 -8 11 -25 20 -37 21 -12 1 -24 7
-26 13 -2 7 -11 12 -19 12 -13 0 -13 -3 -3 -15 11 -13 7 -15 -29 -13 -22 1
-44 -2 -48 -5 -3 -4 0 -7 8 -7 8 0 21 -5 29 -10 13 -8 12 -11 -5 -24 -11 -9
-15 -16 -8 -16 6 0 19 -3 27 -6 12 -5 15 -2 10 10 -4 11 0 16 14 16 11 0 22
-7 25 -15 6 -15 67 -17 67 -2 0 4 12 7 26 7 14 0 23 4 19 10 -3 6 -1 10 4 10
6 0 11 -6 11 -14 0 -9 7 -12 20 -9 23 6 27 23 5 23 -8 0 -15 5 -15 10 0 6 6
10 13 10 8 0 7 4 -3 10 -13 8 -13 11 -1 19 11 7 9 11 -9 21 -15 8 -20 8 -16 1z"/>
<path d="M7150 596 c0 -8 48 -12 66 -5 13 5 7 8 -23 8 -24 1 -43 -1 -43 -3z"/>
<path d="M7255 590 c3 -5 8 -10 11 -10 2 0 4 5 4 10 0 6 -5 10 -11 10 -5 0 -7
-4 -4 -10z"/>
<path d="M7435 590 c3 -5 8 -10 11 -10 2 0 4 5 4 10 0 6 -5 10 -11 10 -5 0 -7
-4 -4 -10z"/>
<path d="M8224 586 c-18 -14 -18 -15 4 -13 12 1 22 7 22 14 0 16 -2 16 -26 -1z"/>
<path d="M6487 555 c-9 -19 -23 -35 -31 -35 -8 0 -18 -5 -22 -12 -5 -8 -2 -9
9 -5 9 3 22 0 29 -6 7 -7 21 -16 31 -20 21 -8 23 15 3 33 -14 11 -11 39 5 50
4 3 5 11 0 18 -5 8 -13 0 -24 -23z"/>
<path d="M6794 578 c-9 -13 28 -50 43 -44 19 7 16 -4 -4 -21 -17 -14 -17 -14
0 -9 9 3 17 1 17 -4 0 -12 52 7 62 23 12 19 9 28 -9 26 -41 -4 -46 1 -24 20
l23 20 -52 -1 c-28 -1 -53 -5 -56 -10z m41 -18 c-3 -5 -10 -10 -16 -10 -5 0
-9 5 -9 10 0 6 7 10 16 10 8 0 12 -4 9 -10z"/>
<path d="M8406 575 c4 -8 10 -15 15 -15 4 0 6 7 3 15 -4 8 -10 15 -15 15 -4 0
-6 -7 -3 -15z"/>
<path d="M4190 568 c0 -4 6 -8 14 -8 8 0 17 4 20 8 2 4 -4 8 -15 8 -10 0 -19
-4 -19 -8z"/>
<path d="M8169 573 c-1 -5 -1 -11 -1 -14 1 -3 -28 -5 -64 -4 -35 1 -70 -2 -77
-7 -13 -8 14 -12 63 -10 112 6 112 5 103 27 -5 16 -22 21 -24 8z"/>
<path d="M4245 560 c3 -5 14 -10 23 -10 15 0 15 2 2 10 -20 13 -33 13 -25 0z"/>
<path d="M4320 560 c0 -5 5 -10 11 -10 5 0 7 5 4 10 -3 6 -8 10 -11 10 -2 0
-4 -4 -4 -10z"/>
<path d="M7195 559 c-6 -9 -2 -11 12 -7 12 3 27 2 34 -3 19 -12 -37 -32 -81
-29 -19 1 -33 -1 -30 -4 7 -6 64 -8 110 -2 19 2 41 4 49 5 10 1 11 4 2 14 -6
8 -8 17 -4 20 3 4 -1 7 -9 7 -9 0 -29 3 -46 6 -19 4 -32 1 -37 -7z"/>
<path d="M7506 555 c-24 -18 -56 -20 -56 -2 0 6 -5 4 -11 -5 -5 -10 -19 -18
-29 -18 -10 0 -22 -5 -25 -10 -4 -7 2 -9 19 -4 16 4 32 1 42 -7 11 -9 17 -10
22 -2 4 6 20 15 35 18 15 4 27 13 27 20 0 7 6 16 13 18 8 4 7 6 -3 6 -8 0 -24
-6 -34 -14z"/>
<path d="M1185 550 c-3 -5 1 -10 9 -10 9 0 16 5 16 10 0 6 -4 10 -9 10 -6 0
-13 -4 -16 -10z"/>
<path d="M7103 534 c-7 -15 -8 -26 -1 -30 5 -3 12 3 15 14 3 12 12 22 22 24
13 3 12 5 -4 9 -15 5 -24 0 -32 -17z"/>
<path d="M1655 540 c-18 -8 -17 -9 8 -9 16 -1 26 3 22 9 -3 6 -7 10 -8 9 -1 0
-11 -4 -22 -9z"/>
<path d="M7060 535 c0 -8 -4 -15 -10 -15 -5 0 -10 -4 -10 -10 0 -5 9 -10 20
-10 15 0 20 7 20 25 0 14 -4 25 -10 25 -5 0 -10 -7 -10 -15z"/>
<path d="M7565 542 c-12 -13 -4 -23 15 -17 11 4 20 2 20 -4 0 -6 8 -15 18 -20
15 -8 18 -5 17 17 0 23 -5 27 -32 28 -18 1 -35 -1 -38 -4z"/>
<path d="M3583 533 c-7 -3 -13 -9 -13 -15 0 -7 4 -7 13 1 10 8 17 7 25 -1 8
-8 12 -9 12 -1 0 13 -20 22 -37 16z"/>
<path d="M3822 520 c-12 -19 -11 -20 8 -8 11 7 20 16 20 20 0 15 -15 8 -28
-12z"/>
<path d="M4240 522 c0 -8 9 -12 25 -10 31 4 29 21 -2 23 -13 0 -23 -5 -23 -13z"/>
<path d="M3341 514 c0 -11 3 -14 6 -6 3 7 2 16 -1 19 -3 4 -6 -2 -5 -13z"/>
<path d="M6797 523 c-4 -3 -7 -11 -7 -17 0 -6 5 -5 12 2 6 6 9 14 7 17 -3 3
-9 2 -12 -2z"/>
<path d="M7340 520 c0 -5 5 -10 10 -10 6 0 10 5 10 10 0 6 -4 10 -10 10 -5 0
-10 -4 -10 -10z"/>
<path d="M5675 510 c-3 -5 -1 -10 4 -10 6 0 11 5 11 10 0 6 -2 10 -4 10 -3 0
-8 -4 -11 -10z"/>
<path d="M7990 510 c0 -5 5 -10 11 -10 5 0 7 5 4 10 -3 6 -8 10 -11 10 -2 0
-4 -4 -4 -10z"/>
<path d="M3458 503 c7 -3 16 -2 19 1 4 3 -2 6 -13 5 -11 0 -14 -3 -6 -6z"/>
<path d="M6400 500 c0 -5 5 -10 11 -10 5 0 7 5 4 10 -3 6 -8 10 -11 10 -2 0
-4 -4 -4 -10z"/>
<path d="M2630 470 c0 -5 7 -10 16 -10 8 0 12 5 9 10 -3 6 -10 10 -16 10 -5 0
-9 -4 -9 -10z"/>
<path d="M10080 80 l0 -80 80 0 80 0 0 80 0 80 -80 0 -80 0 0 -80z"/>
</g>
</svg>
