<svg xmlns="http://www.w3.org/2000/svg" width="70" height="70" fill="none"><circle cx="35" cy="35" r="33" fill="url(#a)" stroke="#b4d6ef" stroke-width="4"/><path stroke="#2b2d2d" stroke-width="1.25" d="M4 34.629h62"/><path fill="#ef7e81" d="M34.867 44.577c-9.309 0-16.855 3.133-16.855 6.997v.668c0 3.864 7.546 6.997 16.855 6.997 9.308 0 16.855-3.133 16.855-6.997v-.668c0-3.864-7.547-6.997-16.855-6.997"/><path fill="#2b2d2d" d="M34.867 59.75c-9.738 0-17.367-3.298-17.367-7.508v-.668c0-4.21 7.629-7.508 17.367-7.508s17.367 3.298 17.367 7.508v.668c0 4.21-7.629 7.508-17.367 7.508m0-14.662c-8.859 0-16.343 2.97-16.343 6.486v.668c0 3.516 7.484 6.486 16.343 6.486s16.343-2.97 16.343-6.486v-.668c0-3.517-7.484-6.486-16.343-6.486"/><path fill="#fff" d="M46.708 40.932c3.468 0 6.28-2.806 6.28-6.267 0-3.46-2.812-6.266-6.28-6.266s-6.28 2.805-6.28 6.266 2.811 6.267 6.28 6.267"/><path fill="#2b2d2d" d="M46.708 41.442c-3.745 0-6.792-3.04-6.792-6.777s3.047-6.777 6.792-6.777 6.791 3.04 6.791 6.777-3.046 6.777-6.791 6.777m0-12.533c-3.18 0-5.768 2.582-5.768 5.755s2.587 5.756 5.768 5.756 5.769-2.582 5.769-5.756-2.588-5.755-5.77-5.755"/><path fill="#fff" d="M34.867 20.275c-7.125 0-12.902 2.399-12.902 5.356v23.546c0 2.958 5.776 5.355 12.902 5.355s12.901-2.398 12.901-5.355V25.63c0-2.958-5.776-5.356-12.901-5.356"/><path fill="#2b2d2d" d="M34.867 55.044c-7.522 0-13.414-2.576-13.414-5.866V25.632c0-3.29 5.892-5.866 13.414-5.866s13.414 2.577 13.414 5.866v23.546c0 3.29-5.893 5.866-13.414 5.866m0-34.257c-7.411 0-12.39 2.505-12.39 4.844v23.546c0 2.34 4.978 4.845 12.39 4.845s12.39-2.505 12.39-4.845V25.631c0-2.339-4.978-4.844-12.39-4.844"/><path fill="#ef7e81" d="M34.103 37.196q.514 0 .784-.284a1 1 0 0 0 .27-.714q0-.45-.278-.721c-.187-.182-.498-.275-.935-.287a33 33 0 0 1-1.663-.101q-.654-.056-.932.194-.276.252-.278.691 0 .332.176.626.115.18.512.454-.826 1.038-1.648 2.032-.838-1.243-1.672-2.53.392-.156.507-.302a.95.95 0 0 0 .175-.573q0-.45-.275-.774c-.184-.217-.492-.368-.92-.463a33 33 0 0 1-1.637-.417c-.426-.117-.727-.117-.906.013q-.27.194-.27.642 0 .43.253.788.251.357.767.524 1.395 2.282 2.813 4.437a134 134 0 0 1-2.95 3.354q-.516-.15-.78.048-.265.199-.265.628 0 .45.27.813c.18.243.48.43.904.55q.99.279 1.991.494c.43.092.738.057.922-.094q.275-.228.275-.668 0-.42-.254-.749-.254-.328-.751-.45.907-1.051 1.82-2.155a157 157 0 0 0 1.816 2.698q-.513-.029-.767.217-.256.25-.256.668 0 .45.278.76c.185.208.492.335.922.371q1.02.09 2.044.111c.437.01.749-.085.934-.272q.28-.28.28-.72t-.27-.714q-.27-.276-.811-.293a153 153 0 0 1-3.024-4.229q1.411-1.74 2.83-3.605zM43.624 35.993c.424-.12.725-.306.905-.548q.27-.364.269-.814 0-.448-.27-.637c-.178-.126-.479-.123-.904-.003a32 32 0 0 1-5.405 1.028c-.435.045-.746.162-.931.362q-.28.299-.278.747 0 .45.278.708c.186.17.496.24.931.194a32 32 0 0 0 1.822-.243v7.83q-.908.147-1.822.243c-.435.045-.746.163-.931.362a1.04 1.04 0 0 0-.278.737q0 .451.278.707c.186.172.496.24.931.195 1.821-.19 3.63-.536 5.405-1.037.424-.12.725-.307.905-.549q.27-.362.269-.803 0-.448-.27-.642c-.178-.129-.479-.128-.904-.008q-.89.252-1.792.451v-7.83q.901-.199 1.792-.45"/><path fill="#2b2d2d" d="M34.868 30.534c-1.182 0-2.345-.07-3.454-.21a21 21 0 0 1-3.005-.589c-.917-.255-1.72-.562-2.388-.912-.705-.371-1.249-.786-1.615-1.233a3 3 0 0 1-.237-.331 2.5 2.5 0 0 1-.18-.355 2.019 2.019 0 0 1-.154-.771c0-.679.338-1.317 1.002-1.897a.513.513 0 0 1 .675.77c-.432.377-.652.757-.652 1.128a1 1 0 0 0 .02.192q.02.097.06.197.04.102.104.205.066.106.154.214c.28.343.719.67 1.301.977.603.317 1.338.598 2.186.833.869.242 1.83.43 2.858.56 1.067.134 2.186.201 3.326.201a27 27 0 0 0 3.326-.202 20 20 0 0 0 2.857-.559c.847-.235 1.582-.516 2.186-.832.584-.307 1.021-.635 1.302-.977q.09-.108.154-.215.063-.104.105-.206a1 1 0 0 0 .079-.39c0-.37-.22-.75-.653-1.128a.511.511 0 1 1 .675-.77c.665.581 1.001 1.22 1.001 1.898a2 2 0 0 1-.152.771q-.074.181-.18.355a3 3 0 0 1-.239.332c-.367.446-.91.862-1.616 1.232-.667.35-1.47.658-2.388.913-.916.255-1.927.452-3.003.588-1.11.14-2.272.21-3.454.21z"/><path fill="#967d68" d="M44.933 27.266c-1.312 1.596-5.322 2.757-10.066 2.757s-8.757-1.16-10.066-2.757c1.309-1.597 5.32-2.758 10.066-2.758s8.757 1.161 10.066 2.758"/><path fill="#2b2d2d" d="M34.867 30.534c-4.814 0-9.018-1.184-10.462-2.944a.51.51 0 0 1 0-.647C25.849 25.182 30.053 24 34.867 24s9.018 1.184 10.462 2.944a.51.51 0 0 1 0 .648c-1.447 1.761-5.651 2.943-10.462 2.943m-9.356-3.268c1.508 1.338 5.227 2.247 9.356 2.247s7.845-.909 9.356-2.247c-1.51-1.338-5.228-2.246-9.356-2.246s-7.847.908-9.356 2.246"/><path fill="#b4d6ef" d="M32.035 23.245a.94.94 0 0 1-.93-.8 14.8 14.8 0 0 1 .002-4.648c.11-.669.242-1.17.36-1.61.149-.563.266-1.007.29-1.64a6.5 6.5 0 0 0-.334-2.266l-.424.387a.943.943 0 0 1-1.33-.059.94.94 0 0 1 .059-1.327l1.408-1.286a.944.944 0 0 1 1.473.265c.738 1.436 1.084 2.903 1.03 4.358-.033.84-.189 1.427-.353 2.048-.11.42-.226.854-.322 1.435-.212 1.292-.211 2.659.002 4.062a.94.94 0 0 1-.932 1.081zM37.623 26.132a.94.94 0 0 1-.93-.799c-.243-1.597-.243-3.162.002-4.649.11-.669.242-1.169.36-1.61.148-.562.265-1.006.29-1.64a6.4 6.4 0 0 0-.334-2.266l-.424.387a.943.943 0 0 1-1.33-.059.94.94 0 0 1 .059-1.327l1.408-1.286a.944.944 0 0 1 1.473.265c.738 1.437 1.084 2.903 1.029 4.358-.032.84-.188 1.427-.352 2.049-.11.42-.226.854-.322 1.434-.212 1.293-.211 2.66.002 4.063a.94.94 0 0 1-.933 1.08z"/><defs><linearGradient id="a" x1="35" x2="35" y1="0" y2="70" gradientUnits="userSpaceOnUse"><stop offset=".5" stop-color="#83b6da"/><stop offset=".5" stop-color="#d3a47f"/></linearGradient></defs></svg>