<svg xmlns="http://www.w3.org/2000/svg" width="50" height="123" fill="none"><path fill="#ef7e81" d="M48.204 27.408c-1.337 12.812-13.83 31.944-26.642 30.607S.472 35.381 1.808 22.57C3.145 9.757 14.614.452 27.427 1.79 40.239 3.126 49.54 14.595 48.204 27.407"/><path fill="#040404" d="M22.85 59.748q-.732 0-1.46-.076c-6.404-.668-12.265-5.76-16.502-14.337C1.258 37.988-.558 29.198.151 22.398 1.581 8.694 13.888-1.293 27.598.136c6.64.692 12.611 3.929 16.816 9.113s6.14 11.693 5.449 18.333c-.71 6.8-4.298 15.027-9.366 21.466-5.469 6.951-11.682 10.7-17.648 10.7M24.987 3.33c-10.943 0-20.367 8.293-21.527 19.414-.636 6.117 1.093 14.405 4.408 21.117 3.659 7.407 8.712 11.964 13.865 12.501 5.152.535 11.033-2.88 16.142-9.371 4.629-5.885 8.032-13.637 8.671-19.751 1.238-11.88-7.419-22.55-19.298-23.788a22 22 0 0 0-2.264-.12z"/><path fill="#fff" d="M10.888 15.9a1.666 1.666 0 0 1-1.316-2.682 20.4 20.4 0 0 1 2.475-2.677 20.4 20.4 0 0 1 6.198-3.83 20.413 20.413 0 0 1 7.398-1.386l2.136.11a1.666 1.666 0 0 1-.342 3.314l-1.793-.093a16.971 16.971 0 0 0-6.19 1.16c-.95.371-1.874.83-2.743 1.37a17 17 0 0 0-4.504 4.069 1.66 1.66 0 0 1-1.32.645M7.113 25.383q-.087 0-.175-.009a1.66 1.66 0 0 1-1.482-1.828c.134-1.276.387-2.54.75-3.76a1.665 1.665 0 0 1 3.19.953 17.3 17.3 0 0 0-.627 3.153 1.665 1.665 0 0 1-1.653 1.494z"/><path fill="#040404" d="M20.14 122.236a1.66 1.66 0 0 1-1.442-.831c-2.237-3.857-3.545-7.89-3.885-11.987-.677-8.145 2.612-14.222 5.792-20.095 2.964-5.477 5.765-10.65 5.1-17.176-.425-4.173-2.256-8.326-5.44-12.342a1.664 1.664 0 1 1 2.609-2.069c3.586 4.522 5.652 9.259 6.143 14.074.77 7.546-2.409 13.42-5.483 19.1-3.083 5.699-5.998 11.08-5.402 18.235.299 3.6 1.458 7.163 3.446 10.592a1.663 1.663 0 0 1-1.438 2.499"/><path fill="#ef7e81" d="M25.281 65.6c.256-2.465-1.333-6.56-3.798-6.818s-4.867 3.423-5.123 5.888a4.484 4.484 0 1 0 8.921.93"/><path fill="#040404" d="M20.833 71.284q-.324 0-.648-.035a6.12 6.12 0 0 1-4.138-2.243 6.1 6.1 0 0 1-1.34-4.513c.16-1.546.959-3.394 2.08-4.821 1.433-1.822 3.165-2.729 4.871-2.549 1.709.178 3.214 1.421 4.24 3.499.805 1.627 1.203 3.6 1.043 5.146a6.12 6.12 0 0 1-2.243 4.138 6.1 6.1 0 0 1-3.862 1.375zm.404-10.848c-.497 0-1.206.5-1.837 1.299-.732.93-1.29 2.18-1.386 3.106a2.822 2.822 0 0 0 5.611.585c.096-.927-.192-2.264-.715-3.325-.473-.959-1.1-1.61-1.6-1.662q-.035-.002-.073-.003"/></svg>